<svg width="740" height="982" fill="none" xmlns="http://www.w3.org/2000/svg"><path d="M739.885 530.8c-1.828-43.966-33.913-80.153-85.697-120.913-43.551-35.267-165.461-135.105-165.461-135.105 33.913-27.016 41.71-36.174 67.826-56.79 79.292-63.203 68.759-123.66 60.962-146.55C602.392 28.855 558.394 0 507.978 0H-55.773c-80.212 0-148.038 45.333-172.785 115.408-26.589 76.028 3.668 158.915 81.12 221.21 34.373 27.476 96.242 76.935 160.412 128.233-22.92 6.412-46.287 18.317-67.826 38.933-30.257 28.855-45.839 68.236-43.998 111.295 2.288 54.045 31.624 106.71 82.96 147.47l273.158 218.464 420.748-337.079c42.618-34.807 63.71-72.821 61.869-113.121v-.013zM298.518 82.427h209.46c15.122 0 28.416 6.872 31.625 16.03 3.668 9.619-3.669 30.223-34.373 54.965-56.373 44.886-145.29 116.328-206.7 165.327V82.427h-.012zm-394.62 189.149c-49.035-39.393-69.667-87.932-54.992-129.612 12.834-36.634 49.955-59.996 94.862-59.996h271.789v438.294c-90.285-71.901-247.95-197.847-311.66-248.686zM35.894 697.047c-32.085-25.649-50.876-57.251-52.244-86.566-.92-18.777 5.497-35.727 18.79-48.092 47.208-43.966 95.335-31.601 144.831 8.239 16.95 13.285 50.876 40.301 68.746 54.964v215.705L35.894 697.034v.013zM622.09 582.546L298.058 841.31V424.091c11.913-9.618 45.827-33.441 67.366-50.838 35.741-28.855 77.464-31.142 112.285-3.206 52.243 41.679 90.285 76.474 130.628 109.455 28.416 23.363 44.459 42.587 44.906 58.158.92 16.95-18.791 35.267-31.165 44.886h.013z" fill="#EBEFF2" opacity=".35"/></svg>