<svg width="724" height="543" fill="none" xmlns="http://www.w3.org/2000/svg"><path d="M723.918 315.82c-1.353-32.538-25.105-59.318-63.44-89.482-32.24-26.1-122.487-99.985-122.487-99.985 25.105-19.993 30.877-26.77 50.21-42.028 58.698-46.773 50.901-91.514 45.128-108.454C622.135-55.646 589.563-77 552.242-77H134.909C75.529-77 25.319-43.451 6.999 8.408-12.684 64.672 9.715 126.013 67.05 172.115l118.751 94.899c-16.967 4.745-34.266 13.555-50.211 28.812-22.398 21.355-33.934 50.498-32.571 82.364 1.694 39.996 23.411 78.971 61.414 109.135L366.646 649l311.471-249.455c31.55-25.76 47.163-53.892 45.801-83.716v-.009zM397.183-16h155.059c11.194 0 21.036 5.086 23.411 11.864 2.716 7.118-2.716 22.366-25.446 40.676-41.731 33.218-107.555 86.089-153.015 122.35V-16h-.009zm-292.13 139.98c-36.3-29.152-51.572-65.074-40.71-95.92 9.502-27.11 36.982-44.4 70.225-44.4h201.201v324.361C268.932 254.81 152.217 161.603 105.053 123.98zm97.714 314.871c-23.751-18.982-37.662-42.369-38.675-64.063-.681-13.896 4.07-26.44 13.911-35.591 34.946-32.537 70.574-23.387 107.215 6.097 12.548 9.832 37.662 29.825 50.891 40.677v159.633L202.767 438.841v.01zm433.95-84.737L396.842 545.613V236.849c8.82-7.118 33.925-24.748 49.87-37.623 26.458-21.354 57.345-23.046 83.122-2.372 38.675 30.845 66.837 56.595 96.701 81.002 21.036 17.29 32.912 31.517 33.244 43.04.681 12.544-13.911 26.1-23.071 33.218h.009z" fill="#fff" fill-opacity=".65"/></svg>