<svg width="495" height="77" fill="none" xmlns="http://www.w3.org/2000/svg"><path d="M32 39.13c4.73.993 8.225 2.872 10.485 5.636 2.33 2.694 3.495 6.274 3.495 10.74 0 13.044-9.709 19.565-29.126 19.565-6.708 0-12.216-.141-16.523-.425H.225l.742-20.522L.225 6.38l21.183-.106c6.567 0 11.65 1.453 15.252 4.36 3.671 2.835 5.507 6.982 5.507 12.44 0 3.828-.882 7.125-2.648 9.89-1.765 2.693-4.271 4.749-7.52 6.167zm-1.06-14.78c0-3.402-.953-5.848-2.86-7.337-1.906-1.488-5.119-2.233-9.638-2.233H11.24l-.318 20.948 10.91.32c3.106-.78 5.401-2.092 6.884-3.936 1.483-1.913 2.224-4.5 2.224-7.762zM18.654 66.565c5.225 0 9.25-.993 12.075-2.978 2.824-1.985 4.236-4.891 4.236-8.719 0-6.096-3.919-9.676-11.757-10.74l-12.391.107-.106 8.932.317 13.079c2.754.212 5.296.319 7.626.319zM80.921 25.52c.777 0 1.66.07 2.648.213v10.314l-1.165.319c-1.13-.354-2.436-.532-3.919-.532-2.189 0-4.236.816-6.143 2.446-1.906 1.63-3.742 4.253-5.507 7.869l-.106 7.018.635 21.479H56.561l.741-20.522-.635-27.753 10.273-.957-.105 9.782h.741c1.907-3.402 4.025-5.848 6.355-7.337 2.33-1.56 4.66-2.339 6.99-2.339zm11.65 28.604l-.318-27.753 10.591-.957-.424 27.753.318 21.479H92.147l.423-20.522zm5.083-51.36c1.766 0 3.142.532 4.131 1.596.989.992 1.483 2.41 1.483 4.253 0 1.914-.53 3.438-1.589 4.572-1.059 1.135-2.507 1.702-4.342 1.702-1.836 0-3.284-.532-4.343-1.595-.988-1.064-1.483-2.517-1.483-4.36 0-1.843.53-3.332 1.589-4.466 1.13-1.134 2.648-1.701 4.554-1.701zm39.401 21.905c2.259 0 4.554.248 6.884.744 2.33.497 4.378 1.17 6.143 2.02l-1.801 9.04-1.059.425C143.48 34.7 140.02 33.6 136.843 33.6c-3.743 0-6.673 1.418-8.791 4.254-2.119 2.835-3.178 6.805-3.178 11.909 0 5.458 1.095 9.712 3.284 12.76 2.188 2.977 5.295 4.466 9.32 4.466 3.531 0 7.308-1.063 11.333-3.19l.953.638-1.059 8.72c-4.307 1.63-8.614 2.445-12.922 2.445-6.637 0-11.827-2.198-15.569-6.593-3.672-4.466-5.507-10.598-5.507-18.395 0-8.082 1.977-14.426 5.931-19.034 3.954-4.608 9.426-6.912 16.417-6.912zm32.389 28.391l.742 21.586h-10.803l.741-20.629-.636-53.166L170.292 0l-.848 53.06zm12.075-5.104c5.013 7.16 11.333 15.418 18.958 24.776v1.276c-1.835.496-3.813.85-5.931 1.063-2.118.284-3.424.461-3.919.532l-1.165-.425c-7.273-9.216-13.416-17.97-18.429-26.265v-.744l13.875-17.864 2.648-4.679h11.756l-17.793 22.33zm139.802-22.861c6.142 0 10.838 2.055 14.086 6.167 3.249 4.111 4.87 9.889 4.87 17.332 0 8.649-2.081 15.312-6.248 19.991-4.166 4.679-9.955 7.018-17.37 7.018-3.602 0-7.201-.815-10.803-2.446l-6.778 2.765-1.589-1.063.741-20.63-.635-53.378L308.398 0l-.424 32.432h.635c2.189-1.914 4.237-3.403 6.145-4.466 1.905-1.135 4.094-2.091 6.567-2.871zm-4.238 43.065c4.094 0 7.307-1.454 9.639-4.36 2.33-2.977 3.494-7.443 3.494-13.398 0-5.317-.918-9.393-2.753-12.228-1.835-2.907-4.483-4.36-7.945-4.36-3.742 0-7.626 2.127-11.649 6.38l-.211 12.76.316 12.335c3.178 1.914 6.215 2.87 9.109 2.87zm58.334-42.64c.778 0 1.659.07 2.648.213v10.314l-1.165.319c-1.129-.354-2.437-.532-3.918-.532-2.189 0-4.237.816-6.145 2.446-1.905 1.63-3.74 4.253-5.507 7.869l-.106 7.018.635 21.479h-10.803l.743-20.522-.635-27.753 10.274-.957-.108 9.782h.743c1.905-3.402 4.023-5.848 6.353-7.337 2.332-1.56 4.661-2.339 6.991-2.339zm11.649 28.604l-.319-27.753 10.593-.957-.424 27.753.316 21.479h-10.59l.424-20.522zm5.083-51.36c1.765 0 3.143.532 4.132 1.596.989.992 1.481 2.41 1.481 4.253 0 1.914-.53 3.438-1.587 4.572-1.059 1.135-2.507 1.702-4.342 1.702-1.838 0-3.283-.532-4.343-1.595-.989-1.064-1.483-2.517-1.483-4.36 0-1.843.53-3.332 1.589-4.466 1.129-1.134 2.648-1.701 4.553-1.701zm39.402 21.905c2.259 0 4.553.248 6.883.744 2.332.497 4.377 1.17 6.145 2.02l-1.803 9.04-1.059.425c-3.743-2.198-7.202-3.297-10.379-3.297-3.743 0-6.672 1.418-8.791 4.254-2.119 2.835-3.178 6.805-3.178 11.909 0 5.458 1.095 9.712 3.283 12.76 2.189 2.977 5.297 4.466 9.321 4.466 3.531 0 7.309-1.063 11.333-3.19l.954.638-1.06 8.72c-4.307 1.63-8.614 2.445-12.922 2.445-6.637 0-11.828-2.198-15.568-6.593-3.672-4.466-5.509-10.598-5.509-18.395 0-8.082 1.978-14.426 5.931-19.034 3.956-4.608 9.428-6.912 16.419-6.912zm32.391 28.391l.74 21.586h-10.803l.743-20.629-.638-53.166L464.788 0l-.846 53.06zm12.074-5.104c5.012 7.16 11.333 15.418 18.959 24.776v1.276c-1.838.496-3.813.85-5.932 1.063a634.51 634.51 0 00-3.918.532l-1.167-.425c-7.272-9.216-13.415-17.97-18.427-26.265v-.744l13.873-17.864 2.648-4.679h11.758l-17.794 22.33zm-241.85 10.806c1.553 0 3.2-.425 4.943-1.276l.706.496-.706 4.537c-2.59 1.229-4.991 1.938-7.202 2.127-2.92-.473-5.039-1.442-6.355-2.907-1.319-1.512-1.977-3.686-1.977-6.521l.282-5.104-.07-13.824h-4.449l-.282-.425.353-4.183h4.307v-5.174l6.355-2.41.635.567-.141 7.018h9.038l.283.496-.354 4.111h-9.108l-.353 17.794c-.048 1.748.234 2.977.847 3.686.658.661 1.74.992 3.248.992zm23.611-27.86c4.566 0 8.075 1.442 10.52 4.325 2.497 2.835 3.742 6.876 3.742 12.122 0 5.624-1.315 9.948-3.953 12.973-2.636 3.024-6.379 4.536-11.228 4.536-4.564 0-8.094-1.417-10.591-4.253-2.446-2.883-3.671-6.947-3.671-12.193 0-5.623 1.318-9.948 3.954-12.972 2.637-3.025 6.379-4.537 11.227-4.537zm-.425 5.034c-5.366 0-8.048 3.639-8.048 10.917 0 4.442.66 7.727 1.976 9.853 1.318 2.127 3.344 3.19 6.072 3.19 2.684 0 4.687-.898 6.002-2.694 1.32-1.795 1.978-4.536 1.978-8.223 0-4.442-.658-7.726-1.978-9.853-1.315-2.127-3.318-3.19-6.002-3.19zm15.586 34.723h-53.493v6.255h53.493v-6.255z" fill="#0EBAB9"/></svg>