<svg width="70" height="70" fill="none" xmlns="http://www.w3.org/2000/svg"><path d="M33.871 27.097v6.774h36.13v-6.774H33.87zm33.871 4.516H36.13v-2.258h31.613v2.258zm-31.613-6.775h2.258v-1.702l13.548-10.421 13.549 10.42v1.703h2.258v-2.813L51.935 9.865 36.13 22.025v2.814zM70 57.58c0-3.167-1.09-6.273-3.069-8.747l-.989-1.236a3.46 3.46 0 00-4.974-.459v-1.977h-6.774v6.775h3.453a14.034 14.034 0 00-1.195 5.645c0 3.35 2.446 6.131 5.645 6.672v3.489h-5.645V56.451h-9.033v11.291H36.13v-3.489c3.199-.54 5.645-3.321 5.645-6.672 0-3.168-1.09-6.274-3.069-8.748l-.989-1.236A3.46 3.46 0 0035 46.29a3.458 3.458 0 00-2.715 1.306l-.99 1.237a14.051 14.051 0 00-3.07 8.748c0 3.35 2.447 6.131 5.646 6.672v3.489H23.71v-11.29h-9.033v11.29H7.903v-3.489c3.199-.54 5.645-3.321 5.645-6.672 0-2.818-.867-5.585-2.45-7.904h1.321v-6.774H5.645V46.5a3.43 3.43 0 00-1.586 1.097l-.99 1.237A14.051 14.051 0 000 57.581c0 3.35 2.447 6.131 5.645 6.672v3.489H2.258v-3.387H0V70h70v-5.645h-2.258v3.387h-3.387v-3.489c3.198-.54 5.645-3.322 5.645-6.672zM7.903 45.162h2.258v2.258h-.848a3.43 3.43 0 00-1.41-.92v-1.338zm-2.258 11.29v5.486c-1.942-.505-3.387-2.257-3.387-4.356 0-2.658.915-5.263 2.573-7.337l.99-1.238c.234-.292.58-.458.953-.458s.72.166.953.459l.99 1.237a11.789 11.789 0 012.573 7.337c0 2.099-1.445 3.85-3.387 4.356v-5.485H5.645zm15.807 11.291h-4.517V58.71h4.517v9.032zm12.419-11.29v5.485c-1.942-.505-3.387-2.257-3.387-4.356 0-2.658.914-5.263 2.573-7.337l.99-1.238c.234-.292.58-.458.953-.458s.72.166.953.459l.99 1.237a11.789 11.789 0 012.573 7.337c0 2.099-1.445 3.85-3.387 4.356v-5.485h-2.258zm20.323 11.29h-4.517V58.71h4.517v9.032zm2.258-18.065V47.42h2.258v2.259h-2.258zm5.645 6.775v5.485c-1.942-.505-3.387-2.257-3.387-4.356 0-2.658.914-5.263 2.573-7.337l.99-1.238c.234-.292.58-.458.953-.458.372 0 .719.166.953.459l.99 1.237a11.789 11.789 0 012.573 7.337c0 2.099-1.445 3.85-3.387 4.356v-5.485h-2.258z" fill="#0EBAB9"/><path d="M38.387 36.129h-2.258v9.032h2.258V36.13zm29.355 0h-2.258v9.032h2.258V36.13zm-6.774 0h-6.775v6.774h6.775V36.13zm-2.259 4.516h-2.258v-2.258h2.258v2.258zm-9.031-4.516h-6.775v6.774h6.775V36.13zm-2.258 4.516h-2.26v-2.258h2.258v2.258zM21.451 15.807h-6.774v6.774h6.774v-6.774zm-2.258 4.516h-2.258v-2.258h2.258v2.258zm11.291-4.516H23.71v6.774h6.774v-6.774zm-2.258 4.516h-2.258v-2.258h2.258v2.258zM12.42 15.807H5.644v6.774h6.774v-6.774zm-2.259 4.516H7.903v-2.258h2.258v2.258zm11.29 4.516h-6.774v6.774h6.774V24.84zm-2.258 4.516h-2.258v-2.258h2.258v2.258zm11.291-4.516H23.71v6.774h6.774V24.84zm-2.258 4.516h-2.258v-2.258h2.258v2.258zM12.42 24.839H5.644v6.774h6.774V24.84zm-2.259 4.516H7.903v-2.258h2.258v2.258zm11.29 4.516h-6.774v6.774h6.774v-6.774zm-2.258 4.516h-2.258V36.13h2.258v2.258zm11.291-4.516H23.71v6.774h6.774v-6.774zm-2.258 4.516h-2.258V36.13h2.258v2.258zM5.645 40.645h6.774v-6.774H5.645v6.774zm2.258-4.516h2.258v2.258H7.903V36.13zm6.774 13.549h6.774v-6.775h-6.774v6.775zm2.258-4.517h2.258v2.258h-2.258v-2.258zm6.775 4.517h6.774v-6.775H23.71v6.775zm2.258-4.517h2.258v2.258h-2.258v-2.258zm16.935 6.774h6.775v-6.774h-6.775v6.774zm2.258-4.516h2.258v2.258h-2.258V47.42z" fill="#0EBAB9"/><path d="M2.258 13.548h31.613v5.645h2.258V11.29H0v37.258h2.258v-35zm3.387-6.774h24.839v2.258h2.258V4.516h-2.258V0H5.645v4.516H3.387v4.516h2.258V6.774zm2.258-4.516h20.323v2.258H7.903V2.258z" fill="#0EBAB9"/></svg>