<svg width="376" height="332" fill="none" xmlns="http://www.w3.org/2000/svg"><path d="M356.72.055H239.489c-10.643 0-19.281 8.638-19.281 19.281v117.231c0 10.643 8.638 19.281 19.281 19.281h56.109c-.733 30.696-7.867 55.26-21.364 73.732-10.643 14.576-26.762 26.647-48.319 36.172-9.911 4.357-14.191 16.08-9.564 25.875l13.883 29.308c4.473 9.409 15.541 13.536 25.104 9.409 25.529-11.029 47.086-24.989 64.67-41.956 21.441-20.708 36.133-44.077 44.077-70.146 7.944-26.068 11.916-61.623 11.916-106.741V19.336c0-10.643-8.638-19.281-19.281-19.281zM40.89 330.267c25.22-10.991 46.662-24.95 64.362-41.879 21.634-20.708 36.403-44 44.347-69.876 7.944-25.875 11.915-61.546 11.915-107.011V19.336c0-10.643-8.637-19.281-19.281-19.281H25.003C14.358.055 5.72 8.693 5.72 19.336v117.231c0 10.643 8.638 19.281 19.282 19.281H81.11c-.733 30.696-7.867 55.26-21.364 73.732-10.643 14.576-26.762 26.647-48.319 36.171-9.91 4.358-14.19 16.081-9.563 25.876l13.844 29.231c4.474 9.409 15.618 13.574 25.182 9.409z" fill="#F8F9FA"/></svg>