<svg width="60" height="60" fill="none" xmlns="http://www.w3.org/2000/svg"><path d="M43 56H15a1 1 0 00-1 1v2a1 1 0 002 0v-1h27a1 1 0 000-2zM22 25a1 1 0 001 1h4a1 1 0 001-1v-6a1 1 0 00-1-1h-4a1 1 0 00-1 1v6zm2-5h2v4h-2v-4zm-11-8H1a1 1 0 00-1 1v20a1 1 0 002 0V14h11a1 1 0 000-2zm35 37a1 1 0 001 1h4a1 1 0 001-1v-6a1 1 0 00-1-1h-4a1 1 0 00-1 1v6zm2-5h2v4h-2v-4zM5 36C.057 36 0 48.87 0 49a5.009 5.009 0 004 4.9V59a1 1 0 002 0v-5.1a5.009 5.009 0 004-4.9c0-.13-.057-13-5-13zm0 16c-1.654 0-3-1.346-3-3 0-4.982 1.338-11 3-11s3 6.018 3 11c0 1.654-1.346 3-3 3zm6-22H7a1 1 0 00-1 1v2a1 1 0 002 0v-1h2v5a1 1 0 002 0v-6a1 1 0 00-1-1zm38-4h4a1 1 0 001-1v-6a1 1 0 00-1-1h-4a1 1 0 00-1 1v6a1 1 0 001 1zm1-6h2v4h-2v-4z" fill="#0EBAB9"/><path d="M11 18H7a1 1 0 00-1 1v6a1 1 0 001 1h4a1 1 0 001-1v-6a1 1 0 00-1-1zm-1 6H8v-4h2v4zm22 1a1 1 0 001 1h4a1 1 0 001-1v-6a1 1 0 00-1-1h-4a1 1 0 00-1 1v6zm2-5h2v4h-2v-4zm25-8H47a1 1 0 000 2h11v40.184A2.961 2.961 0 0057 54a2.94 2.94 0 00-.514.045A3.971 3.971 0 0053 52a3.971 3.971 0 00-3.486 2.045A3.004 3.004 0 0046 57c0 1.654 1.346 3 3 3h8c1.654 0 3-1.346 3-3V13a1 1 0 00-1-1zm-2 46h-8c-.551 0-1-.449-1-1 0-.551.449-1 1-1 .192 0 .374.055.542.163a1.003 1.003 0 001.516-.615A1.988 1.988 0 0153 54c.932 0 1.73.637 1.942 1.548a.997.997 0 001.516.615c.651-.42 1.542.094 1.542.837 0 .551-.45 1-1 1zM33 14h4a1 1 0 001-1V7a1 1 0 00-1-1h-4a1 1 0 00-1 1v6a1 1 0 001 1zm1-6h2v4h-2V8zm-2 29a1 1 0 001 1h4a1 1 0 001-1v-6a1 1 0 00-1-1h-4a1 1 0 00-1 1v6zm2-5h2v4h-2v-4zM23 14h4a1 1 0 001-1V7a1 1 0 00-1-1h-4a1 1 0 00-1 1v6a1 1 0 001 1zm1-6h2v4h-2V8zm5.29 40.29c-.18.19-.29.45-.29.71 0 .26.11.52.29.71.19.18.45.29.71.29.26 0 .52-.11.71-.29.18-.19.29-.45.29-.71 0-.26-.11-.52-.29-.71-.38-.37-1.04-.37-1.42 0zM22 37a1 1 0 001 1h4a1 1 0 001-1v-6a1 1 0 00-1-1h-4a1 1 0 00-1 1v6zm2-5h2v4h-2v-4z" fill="#0EBAB9"/><path d="M20 43a1 1 0 001 1h3v9a1 1 0 002 0v-9h8v9a1 1 0 002 0v-9h3a1 1 0 000-2H21a1 1 0 00-1 1zm28-6a1 1 0 001 1h4a1 1 0 001-1v-6a1 1 0 00-1-1h-4a1 1 0 00-1 1v6zm2-5h2v4h-2v-4z" fill="#0EBAB9"/><path d="M43 0H17a1 1 0 00-1 1v52a1 1 0 002 0V2h24v51a1 1 0 002 0V1a1 1 0 00-1-1z" fill="#0EBAB9"/></svg>