<svg width="80" height="80" fill="none" xmlns="http://www.w3.org/2000/svg"><path d="M59.333 54.667V41.334c-.007-6.624-5.375-11.993-12-12H26c-6.624.007-11.993 5.376-12 12v17.333h2.667V41.334A9.344 9.344 0 0126 32.001h2.115l7.609 7.609c.52.52 1.365.52 1.885 0L45.22 32h2.114a9.344 9.344 0 019.334 9.334v13.333h2.666zM36.667 36.782L31.885 32h9.563l-4.781 4.78z" fill="#0EBAB9"/><path d="M23.334 44H26v12h-2.666V44zm23.999 0H50v9.333h-2.667V44zm28 14.667H58.33a20.532 20.532 0 00-9.576-2.52 3.09 3.09 0 00-.3-.013c-3.451 0-6.848.865-9.878 2.517l-9.909.016A5.334 5.334 0 0023.333 64a2.24 2.24 0 00.019.316c.02.366.078.728.173 1.081l-7.516-3.444-.121-.06-4.49-2.05a5.688 5.688 0 00-8.065 5.17v.294a5.64 5.64 0 003.15 5.085l17.24 8.634a9.445 9.445 0 004.17.974h47.44c.736 0 1.333-.597 1.333-1.333V60c0-.736-.597-1.333-1.333-1.333zM56.666 77.334H27.893a6.798 6.798 0 01-2.989-.699L7.672 68A2.992 2.992 0 016 65.307v-.294a3.022 3.022 0 014.285-2.746l4.452 2.033.12.059 10.585 4.854c.176.08.366.12.558.12h14.666v-2.666h-12a2.653 2.653 0 01-2.654-2.546A1.277 1.277 0 0026 63.99a2.667 2.667 0 012.666-2.655h10.227c.228 0 .453-.059.652-.17l.32-.181a18.103 18.103 0 018.545-2.195c.081.016.163.025.246.026 2.788.026 5.532.706 8.01 1.986v16.534zm17.334 0H59.333v-16H74v16z" fill="#0EBAB9"/><path d="M62 72h2.667v2.667H62V72zM36.667 26.667c5.888-.007 10.66-4.779 10.666-10.667v-5.333C47.333 4.775 42.558 0 36.667 0 30.775 0 26 4.775 26 10.667V16c.006 5.888 4.779 10.66 10.667 10.667zm-8-16a8 8 0 0116 0V16a8 8 0 11-16 0v-5.333z" fill="#0EBAB9"/><path d="M34 10.667a2.676 2.676 0 011.779-2.515l-.89-2.513a5.344 5.344 0 00-3.556 5.028V12H34v-1.333z" fill="#0EBAB9"/></svg>