<svg width="60" height="60" fill="none" xmlns="http://www.w3.org/2000/svg"><path d="M59.121 25.24h-3.883a.879.879 0 00-.879.878v2.911c0 .051-.04.092-.092.092H41.648a.879.879 0 00-.879.879v3.883a.88.88 0 00.88.879h4.945v19.597H30.97a.092.092 0 01-.092-.091V45.53a.879.879 0 00-.879-.879h-3.883a.879.879 0 00-.879.88v8.736a.09.09 0 01-.092.091h-1.062v-2.066c0-.696-.394-1.301-.97-1.606v-2.244c0-2.09-1.701-3.79-3.792-3.79-2.09 0-3.79 1.7-3.79 3.79v2.244c-.577.305-.972.91-.972 1.606v2.066H5.732a.092.092 0 01-.091-.091v-9.8h7.857c1.02 0 1.85-.829 1.85-1.849v-7.857h9.798c.051 0 .092.041.092.092v2.912a.88.88 0 00.88.879H30a.879.879 0 00.879-.88v-2.911c0-.051.041-.092.092-.092h2.912a.879.879 0 00.879-.879V30a.879.879 0 00-.88-.879h-2.911a.092.092 0 01-.092-.092v-2.912a.879.879 0 00-.879-.879h-3.883a.879.879 0 00-.879.88v2.911c0 .051-.04.092-.092.092h-1.213a.879.879 0 100 1.758h1.213c1.02 0 1.85-.83 1.85-1.85v-2.033h2.125v2.033c0 1.02.83 1.85 1.85 1.85h2.033v2.125H30.97c-1.02 0-1.85.83-1.85 1.85v2.033h-2.125v-2.033c0-1.02-.83-1.85-1.85-1.85H5.732c-1.02 0-1.85.83-1.85 1.85v19.413c0 1.02.83 1.85 1.85 1.85h19.414c1.02 0 1.85-.83 1.85-1.85V46.41h2.125v7.858c0 1.02.83 1.85 1.85 1.85h23.296c1.02 0 1.85-.83 1.85-1.85V34.853c0-1.02-.83-1.85-1.85-1.85h-11.74v-2.125h11.74c1.02 0 1.85-.83 1.85-1.85v-2.032h2.125V58.15a.092.092 0 01-.092.092H1.85a.092.092 0 01-.092-.092V1.85c0-.05.041-.092.092-.092h45.806a.879.879 0 100-1.758H1.85C.83 0 0 .83 0 1.85v56.3C0 59.17.83 60 1.85 60h56.3c1.02 0 1.85-.83 1.85-1.85V26.118a.879.879 0 00-.879-.878zM5.732 34.761h3.004v2.033a.879.879 0 101.758 0v-2.033h3.096v7.857c0 .05-.041.092-.092.092H5.641v-7.857a.09.09 0 01.091-.092zm13.59 11.648c1.121 0 2.034.912 2.034 2.033v2.034h-4.067v-2.034c0-1.12.912-2.033 2.033-2.033zm-3.004 7.95v-2.067a.06.06 0 01.059-.059h5.89a.06.06 0 01.06.059v2.066h-6.009zm38.041-3.883h-6.007V38.645h6.008v11.831zm-.092 3.882h-5.915v-2.125h6.008v2.033a.093.093 0 01-.093.092zm.092-19.505v2.033h-6.007v-2.125h5.916c.05 0 .091.04.091.092z" fill="#0EBAB9"/><path d="M58.15 0h-6.978a.879.879 0 100 1.758h6.979c.05 0 .091.041.091.092v15.624h-2.125V5.733c0-1.02-.83-1.85-1.85-1.85H30.972c-1.02 0-1.85.83-1.85 1.85v11.74h-2.125V5.733c0-1.02-.83-1.85-1.85-1.85H5.732c-1.02 0-1.85.83-1.85 1.85V29.03c0 1.02.83 1.85 1.85 1.85h14.686a.879.879 0 100-1.758H5.733a.092.092 0 01-.092-.092V5.732c0-.05.04-.091.091-.091h2.034v17.597c0 1.002.815 1.817 1.816 1.817h11.715a1.818 1.818 0 001.816-1.817V5.641h2.034c.05 0 .091.04.091.091v12.62c0 .485.394.878.88.878H30a.879.879 0 00.879-.878V5.732c0-.05.041-.091.092-.091h5.916v2.066c0 1.002.815 1.816 1.816 1.816h9.773a1.818 1.818 0 001.817-1.816V5.641h3.974a.09.09 0 01.092.091v12.622a.88.88 0 00.88.879h3.882a.879.879 0 00.879-.88V1.85C60 .83 59.17 0 58.15 0zM17.474 5.64v2.067a.059.059 0 01-.059.059h-3.95a.059.059 0 01-.058-.059V5.641h4.067zm3.824 17.657H9.582a.059.059 0 01-.058-.059v-9.832h11.832v9.832a.059.059 0 01-.06.059zm.058-11.649H9.524V5.641h2.125v2.066c0 1.002.814 1.816 1.816 1.816h3.95a1.818 1.818 0 001.816-1.816V5.641h2.125v6.007zm27.18-3.94a.059.059 0 01-.058.058h-9.774a.059.059 0 01-.058-.059V5.641h9.89v2.066zm2.819 35.305a.879.879 0 00.88-.88v-.97a.879.879 0 10-1.758 0v.97c0 .486.393.88.879.88zm0 5.824a.879.879 0 00.88-.879v-.97a.879.879 0 10-1.758 0v.97c0 .486.393.879.879.879z" fill="#0EBAB9"/><path d="M50.418 21.172a1.818 1.818 0 001.816-1.817v-5.89a1.818 1.818 0 00-1.816-1.817H36.762a1.818 1.818 0 00-1.817 1.817v5.89c0 1.002.815 1.817 1.817 1.817h13.656zm-3.824-7.766v2.067a.059.059 0 01-.059.058h-5.89a.059.059 0 01-.06-.058v-2.067h6.009zm-9.89 5.95v-5.891c0-.032.026-.059.058-.059h2.066v2.067c0 1.001.815 1.816 1.816 1.816h5.891a1.818 1.818 0 001.817-1.816v-2.067h2.066a.06.06 0 01.059.059v5.89a.059.059 0 01-.059.06H36.762a.059.059 0 01-.059-.06z" fill="#0EBAB9"/></svg>