<svg width="80" height="80" fill="none" xmlns="http://www.w3.org/2000/svg"><path d="M77.038 72.974H63.536V60.59a1.172 1.172 0 10-2.344 0v12.384h-2.584c.142-.385.22-.802.22-1.237V51.63a3.585 3.585 0 00-3.581-3.581H24.169a3.585 3.585 0 00-3.581 3.58v20.108c0 .435.078.852.22 1.237h-2.584V51.935c0-3.148 2.062-5.898 5.02-6.697l12.066-2.464.337.362c1.159 1.234 2.64 1.913 4.165 1.913h.028c1.53 0 3.009-.678 4.164-1.907.1-.107.2-.214.297-.32l11.87 2.417c2.958.799 5.021 3.548 5.021 6.698v3.212a1.172 1.172 0 102.344 0v-3.212c0-3.307-1.714-6.287-4.38-7.933-.003-2.655.607-4.173 1.252-5.771.756-1.873 1.537-3.81 1.41-7.365-.127-3.568-1.043-5.34-1.928-7.052-.801-1.552-1.559-3.017-1.667-6.06-.026-.733-.039-1.501-.05-2.244-.074-4.638-.15-9.433-3.378-12.545C51.568-.145 46.77-.051 42.128.043c-.743.014-1.512.03-2.246.03-.766 0-1.57-.019-2.346-.036-4.559-.102-9.271-.207-12.466 2.832-2.596 2.47-3.14 6.122-3.33 9.369a1.172 1.172 0 002.339.137c.164-2.79.601-5.9 2.607-7.808C29.18 2.194 33.4 2.29 37.483 2.38c.79.018 1.607.036 2.4.036.757 0 1.537-.015 2.292-.03 4.164-.084 8.467-.168 10.994 2.268 2.527 2.436 2.595 6.736 2.66 10.895.013.754.025 1.534.052 2.29.127 3.569 1.042 5.34 1.928 7.053.801 1.551 1.559 3.016 1.667 6.06.11 3.057-.547 4.683-1.241 6.404-.623 1.544-1.263 3.133-1.397 5.637-.033-.01-.065-.02-.098-.028a1.377 1.377 0 00-.066-.016l-11.773-2.398a13.479 13.479 0 01-.118-2.803 8.7 8.7 0 00.586-.435c5.199-4.203 7.726-7.85 7.726-11.15 0-.346-.014-.687-.043-1.028-.072-.727-.117-3.702-.115-7.58a1.172 1.172 0 00-1.936-.889 8.483 8.483 0 01-5.532 2.054 8.512 8.512 0 01-7.704-4.93 1.172 1.172 0 00-2.128 0 8.513 8.513 0 01-7.693 4.93l-.047-.002a1.214 1.214 0 00-.834.338 1.17 1.17 0 00-.349.829c-.013 2.73-.055 4.695-.111 5.27-.028.316-.042.655-.042 1.008 0 3.3 2.526 6.946 7.72 11.144.182.148.37.287.562.419.053.934.01 1.843-.13 2.778L22.74 42.949l-.066.015-.075.022c-.102-2.521-.72-4.126-1.323-5.686-.673-1.742-1.308-3.387-1.157-6.476.15-3.077.928-4.549 1.752-6.107.908-1.716 1.846-3.49 2.021-7.088a1.172 1.172 0 10-2.34-.114c-.15 3.076-.929 4.548-1.753 6.107-.907 1.716-1.845 3.49-2.021 7.087-.175 3.585.58 5.543 1.312 7.436.626 1.62 1.219 3.16 1.177 5.854-2.67 1.645-4.387 4.627-4.387 7.936v21.04H2.962A2.964 2.964 0 000 75.935 4.072 4.072 0 004.07 80h71.86A4.072 4.072 0 0080 75.934a2.964 2.964 0 00-2.962-2.96zm-48.134-46.81c0-.285.012-.556.032-.792.068-.686.1-2.58.114-4.367a10.883 10.883 0 007.65-4.418 10.87 10.87 0 008.768 4.477c1.801 0 3.563-.45 5.13-1.294.01 2.078.038 4.75.12 5.58.022.26.033.533.033.814 0 2.476-2.37 5.7-6.858 9.328a6.441 6.441 0 01-4.053 1.437h-.026a6.447 6.447 0 01-4.057-1.442c-4.483-3.624-6.853-6.848-6.853-9.324zM39.81 39.271h.034c.875 0 1.742-.132 2.57-.386.014.77.083 1.529.211 2.297-.107.117-.216.234-.327.352-.71.755-1.582 1.17-2.465 1.17h-.014c-.878 0-1.753-.416-2.465-1.175-.123-.131-.246-.262-.366-.393.129-.765.2-1.512.219-2.263a8.752 8.752 0 002.603.398zm36.12 38.384H4.07a1.726 1.726 0 01-1.726-1.722c0-.34.277-.616.618-.616h25.224a1.172 1.172 0 100-2.343H24.17a1.239 1.239 0 01-1.237-1.238V51.63c0-.682.555-1.237 1.237-1.237h31.078c.682 0 1.237.555 1.237 1.237v20.107c0 .682-.555 1.237-1.237 1.237h-21.67a1.172 1.172 0 100 2.344h43.461c.341 0 .618.277.618.616 0 .95-.774 1.722-1.725 1.722z" fill="#0EBAB9"/><path d="M39.708 65.617a3.94 3.94 0 003.937-3.934 3.94 3.94 0 00-3.937-3.934 3.94 3.94 0 00-3.936 3.934 3.94 3.94 0 003.936 3.934zm0-5.524c.878 0 1.593.713 1.593 1.59a1.593 1.593 0 01-3.186 0c0-.877.715-1.59 1.593-1.59z" fill="#0EBAB9"/></svg>