<svg width="70" height="64" fill="none" xmlns="http://www.w3.org/2000/svg"><path d="M67.594 19.926h-.669L60.661 3.06A3.803 3.803 0 0057.11.59H12.89a3.803 3.803 0 00-3.55 2.47L3.074 19.926h-.668A2.41 2.41 0 000 22.333v1.933a2.41 2.41 0 002.407 2.407h.355v22.475a1.025 1.025 0 102.051 0V26.672h16.1c.901 0 1.748-.35 2.385-.988L35 13.983l11.702 11.701a3.351 3.351 0 002.385.988h16.1v2.719a1.025 1.025 0 102.05 0v-2.719h.357A2.41 2.41 0 0070 24.266v-1.934a2.41 2.41 0 00-2.406-2.406zM11.262 3.774a1.744 1.744 0 011.628-1.132h44.22c.722 0 1.377.455 1.628 1.132l6 16.152H50.484L37.385 6.827A3.351 3.351 0 0035 5.839a3.35 3.35 0 00-2.385.988l-13.1 13.099H5.263l6-16.152zm56.687 20.492c0 .196-.16.356-.355.356H49.087c-.353 0-.685-.138-.935-.388L35.725 11.807a1.025 1.025 0 00-1.45 0L21.848 24.234c-.25.25-.582.388-.935.388H2.407a.356.356 0 01-.356-.356v-1.933c0-.197.16-.356.356-.356H19.94c.272 0 .533-.108.726-.3l13.4-13.4c.249-.25.58-.387.934-.387.353 0 .685.137.935.387l13.4 13.4c.192.192.453.3.725.3h17.534c.196 0 .356.16.356.355v1.934z" fill="#0EBAB9"/><path d="M61.655 55.122c.566 0 1.025-.46 1.025-1.026v-18.23c0-.566-.459-1.025-1.025-1.025H47.844c-.567 0-1.026.459-1.026 1.025v18.23c0 .567.46 1.026 1.026 1.026h13.81zm-1.026-6.47h-4.854v-4.855h4.854v4.855zm-6.905 0h-4.855v-4.855h4.855v4.855zm6.905 4.419H48.87v-2.369h11.76v2.369zm0-11.325h-4.854v-4.855h4.854v4.855zm-6.905-4.854v4.854h-4.855v-4.854h4.855zm-31.568 18.23c.566 0 1.025-.46 1.025-1.026v-18.23c0-.566-.459-1.025-1.025-1.025H8.345c-.567 0-1.026.459-1.026 1.025v18.23c0 .567.46 1.026 1.026 1.026h13.81zm-1.026-6.47h-4.854v-4.855h4.854v4.855zm-6.905 0H9.37v-4.855h4.855v4.855zm6.905 4.419H9.37v-2.369h11.76v2.369zm0-11.325h-4.854v-4.855h4.854v4.855zm-6.905-4.854v4.854H9.37v-4.854h4.855zm24.089 2.37h-6.629c-.566 0-1.025.459-1.025 1.025v4.42c0 .566.459 1.025 1.025 1.025h6.63c.566 0 1.025-.46 1.025-1.026v-4.419c0-.566-.46-1.025-1.026-1.025zm-1.025 4.42H32.71v-2.37h4.578v2.37zm3.156-17.345A5.451 5.451 0 0035 20.893a5.451 5.451 0 00-5.445 5.444A5.451 5.451 0 0035 31.782a5.451 5.451 0 005.445-5.445zm-8.839 0A3.398 3.398 0 0135 22.943a3.398 3.398 0 013.394 3.394A3.398 3.398 0 0135 29.732a3.398 3.398 0 01-3.394-3.395z" fill="#0EBAB9"/><path d="M68.975 56.663h-1.737V34.188a1.025 1.025 0 10-2.05 0v22.475h-21.43V35.867c0-.566-.459-1.025-1.025-1.025H27.266c-.566 0-1.025.459-1.025 1.025v20.796H4.813v-2.719a1.025 1.025 0 10-2.05 0v2.719H1.024C.46 56.663 0 57.122 0 57.688v4.696c0 .566.459 1.025 1.025 1.025h67.95c.566 0 1.025-.459 1.025-1.025v-4.696c0-.566-.459-1.025-1.025-1.025zM28.29 49.184h1.461a1.025 1.025 0 100-2.05h-1.46V36.891h13.417v19.77H28.29v-7.478zm39.66 12.174H2.051v-2.644h65.898v2.644z" fill="#0EBAB9"/></svg>