<svg width="60" height="60" fill="none" xmlns="http://www.w3.org/2000/svg"><path d="M17.73 32.818a.881.881 0 00-.88-.88h-.998v-.999a.881.881 0 00-1.762 0v.998h-.998a.88.88 0 100 1.762h.998v.998a.88.88 0 001.762 0v-.998h.997a.88.88 0 00.881-.881zm10.392.881h.997v.998a.881.881 0 001.762 0v-.998h.998a.881.881 0 000-1.762h-.998v-.998a.881.881 0 00-1.762 0v.998h-.997a.881.881 0 000 1.762z" fill="#0EBAB9"/><path d="M59.434 58.352l-6.479-3.65V16.79h6.164a.89.89 0 00.866-1.043L57.167.718A.88.88 0 0056.3 0H45.03a.88.88 0 00-.865.718l-2.818 15.03a.89.89 0 00.865 1.043h2.877v2.935h-.059a.88.88 0 000 1.761h.059v2.877a.881.881 0 001.761 0v-2.877h.059a.88.88 0 000-1.761h-.059v-2.935h1.527v37.957L44.97 56.75V42.21a5.584 5.584 0 00-5.578-5.577l-.058.002V30a6.524 6.524 0 00-6.517-6.517H12.153A6.524 6.524 0 005.636 30v6.636l-.059-.002A5.584 5.584 0 000 42.21v16.91a.88.88 0 00.88.881h58.122a.89.89 0 00.847-.641.889.889 0 00-.415-1.007zM1.761 42.212a3.82 3.82 0 013.816-3.817 3.82 3.82 0 013.816 3.816V58.24H1.761V42.21zm9.394 8.395h2.915a.88.88 0 100-1.762h-2.915v-6.634a5.586 5.586 0 00-3.758-5.27V30a4.76 4.76 0 014.756-4.755h20.665A4.76 4.76 0 0137.573 30v6.94a5.586 5.586 0 00-3.757 5.271v6.634H18.219a.88.88 0 000 1.762h15.597v7.632H11.155v-7.632zm32.054 7.632h-7.632V42.21a3.82 3.82 0 013.816-3.816 3.82 3.82 0 013.816 3.816v16.03zM45.76 1.76h9.81l2.488 13.268H43.272L45.76 1.761zm5.434 15.03v37.69h-1.057V16.79h1.056zm-5.279 41.447l3.394-1.995h2.765l.026-.002 3.545 1.998h-9.73z" fill="#0EBAB9"/><path d="M11.213 18.67h22.544a.88.88 0 00.88-.881V.88a.88.88 0 00-.88-.881H11.213a.88.88 0 00-.88.88V17.79c0 .486.394.88.88.88zm.881-16.909h20.782v15.147H12.095V1.761z" fill="#0EBAB9"/><path d="M30.94 2.818H14.03a.88.88 0 00-.88.88v11.273c0 .486.393.88.88.88h16.91a.88.88 0 00.88-.88V3.699a.88.88 0 00-.88-.881zm-.882 11.272H14.912V4.58h15.146v9.51z" fill="#0EBAB9"/><path d="M22.04 12.913a.89.89 0 00.89 0c.984-.577 4.193-2.606 4.193-4.518 0-.804-.417-1.839-1.349-2.338-.64-.342-1.71-.53-3.289.364-1.578-.894-2.65-.706-3.289-.364-.932.5-1.349 1.534-1.349 2.338 0 1.913 3.21 3.941 4.193 4.518zM20.028 7.61a.74.74 0 01.353-.078c.406 0 .97.226 1.616.656a.88.88 0 00.977 0c.863-.575 1.581-.786 1.969-.578.289.155.419.552.419.785 0 .502-1.323 1.738-2.877 2.726-1.555-.987-2.876-2.223-2.876-2.726 0-.233.13-.63.418-.785z" fill="#0EBAB9"/></svg>