<svg width="51" height="51" fill="none" xmlns="http://www.w3.org/2000/svg"><g clip-path="url(#clip0)" fill="#0EBAB9"><path d="M41.455 16.691a.843.843 0 00-.76-.477H28.523L35.548 1.38a.842.842 0 00-.762-1.205H17.903a.843.843 0 00-.83.69l-4.221 22.793a.84.84 0 00.181.693.84.84 0 00.649.305h9.742l-9.686 25.02a.843.843 0 001.449.83l26.17-32.923c.2-.254.24-.6.098-.892zm-24.14 28.425l8.129-21a.847.847 0 00-.09-.782.848.848 0 00-.698-.367h-9.96l3.91-21.104h14.846l-7.026 14.834a.842.842 0 00.763 1.205h11.757L17.314 45.116zm-8.698-20.46H.175v1.688h8.442v-1.688zm42.208 0h-8.441v1.688h8.441v-1.688zM49.806.423l-5.909 5.909 1.194 1.194L51 1.616 49.806.424zM5.912 42.63l-5.91 5.91 1.195 1.193 5.909-5.909-1.194-1.194zm39.178.845l-1.194 1.194 5.909 5.909 1.194-1.194-5.91-5.909zM1.194.422L0 1.615l5.909 5.91L7.103 6.33 1.193.422z"/></g><defs><clipPath id="clip0"><path fill="#fff" d="M0 0h51v51H0z"/></clipPath></defs></svg>