<svg width="187" height="421" fill="none" xmlns="http://www.w3.org/2000/svg"><path d="M186.889 219.531c-.567-19.674-10.515-35.868-26.57-54.108-13.503-15.782-51.302-60.459-51.302-60.459 10.515-12.09 12.933-16.188 21.03-25.413 24.584-28.284 21.318-55.338 18.901-65.581C144.259-5.087 130.617-18 114.986-18h-174.79c-24.87 0-45.899 20.286-53.572 51.645-8.244 34.022 1.137 71.114 25.151 98.991l49.736 57.383c-7.107 2.87-14.352 8.197-21.03 17.423-9.38 12.912-14.212 30.535-13.642 49.804.71 24.185 9.806 47.752 25.722 65.992L37.254 421l130.452-150.841c13.214-15.577 19.753-32.588 19.183-50.622v-.006zM50.043 18.886h64.943c4.689 0 8.811 3.075 9.805 7.174 1.138 4.304-1.137 13.524-10.657 24.596-17.478 20.086-45.047 52.056-64.087 73.983V18.886h-.004zM-72.308 103.53c-15.204-17.629-21.6-39.35-17.05-58.001C-85.38 29.135-73.87 18.68-59.948 18.68H24.32v196.136C-3.673 182.64-52.556 126.279-72.31 103.53zm40.925 190.396c-9.948-11.478-15.774-25.619-16.198-38.738-.286-8.402 1.704-15.987 5.826-21.521 14.636-19.674 29.558-14.141 44.904 3.687 5.256 5.945 15.774 18.035 21.315 24.597v96.527l-55.847-64.557v.005zm181.75-51.239L49.901 358.484V171.779c3.693-4.304 14.208-14.964 20.886-22.75 11.082-12.912 24.018-13.935 34.814-1.434 16.198 18.651 27.993 34.222 40.501 48.981 8.811 10.454 13.785 19.057 13.924 26.025.285 7.585-5.827 15.782-9.663 20.086h.004z" fill="#fff" fill-opacity=".35"/></svg>