<svg width="51" height="51" fill="none" xmlns="http://www.w3.org/2000/svg"><path d="M47.653 22.95h-1.7V9.352a.85.85 0 00-.85-.85h-5.148l-1.69-5.355a.854.854 0 00-1.114-.538l-6.922 2.638-3.11-4.853A.848.848 0 0025.94.14L13.177 8.5H6.004a5.957 5.957 0 00-5.95 5.95v30.6A5.957 5.957 0 006.005 51h39.1a.85.85 0 00.85-.85v-10.2h1.7a3.4 3.4 0 003.4-3.4v-10.2a3.4 3.4 0 00-3.4-3.4zm0 1.7a1.7 1.7 0 110 3.4h-1.7v-3.4h1.7zm-3.4-14.449v8.5h-1.076l-2.684-8.5h3.76zm-2.858 8.5h-2.478l-2.357-7.069a.85.85 0 00-.806-.581 3.231 3.231 0 01-2.301-.953l-.498-.498a.85.85 0 00-.896-.196L6.91 18.7h-.907a4.237 4.237 0 01-3.015-1.26L36.915 4.52l4.48 14.18zm-4.27 0H11.812l20.326-7.514.113.113a4.913 4.913 0 002.877 1.411l1.997 5.99zM26.15 2.034l2.454 3.832-19.825 7.55L26.15 2.034zM6.004 10.2h4.578l-8.58 5.621a4.193 4.193 0 01-.247-1.371 4.255 4.255 0 014.25-4.25zm38.25 39.1H6.003a4.255 4.255 0 01-4.25-4.25V18.616c.009.007.018.014.025.023.067.066.137.127.206.19.069.063.143.135.218.198.076.063.15.114.224.17.075.056.155.12.236.177.082.056.16.1.241.149.08.05.165.105.255.153.09.047.174.085.262.128.087.043.17.085.26.126.09.04.193.072.29.107.097.035.17.068.26.095.106.034.216.058.326.085.085.02.163.046.246.063.125.026.255.041.382.06.07.01.14.024.212.032.202.02.405.03.607.03H7.11l.012.031.091-.032h37.04v7.65h-9.35a5.95 5.95 0 000 11.9h9.35V49.3zm5.1-12.75a1.7 1.7 0 01-1.7 1.7h-12.75a4.25 4.25 0 010-8.5h12.75a3.375 3.375 0 00.754-.09 3.4 3.4 0 00.562-.175l.03-.014a3.36 3.36 0 00.353-.177v7.257z" fill="#0EBAB9"/><path d="M18.39 22.95h3.4v1.7h-3.4v-1.7zm-6.8 0h3.4v1.7h-3.4v-1.7zm27.2 0h2.913v1.7H38.79v-1.7zm-6.8 0h3.4v1.7h-3.4v-1.7zm-26.989-.118l-.397 1.649c.458.11.928.168 1.4.17h2.187v-1.7H6.004a4.3 4.3 0 01-1.003-.12zm20.189.118h3.4v1.7h-3.4v-1.7zM5.001 44.931l-.397 1.649a6.04 6.04 0 001.4.17h2.187v-1.7H6.004a4.352 4.352 0 01-1.003-.119zm33.789.119h2.913v1.7H38.79v-1.7zm-20.4 0h3.4v1.7h-3.4v-1.7zm13.6 0h3.4v1.7h-3.4v-1.7zm-20.4 0h3.4v1.7h-3.4v-1.7zm13.6 0h3.4v1.7h-3.4v-1.7zm9.714-13.6a2.55 2.55 0 100 5.1 2.55 2.55 0 000-5.1zm0 3.4a.85.85 0 110-1.7.85.85 0 010 1.7z" fill="#0EBAB9"/></svg>