<svg width="80" height="78" fill="none" xmlns="http://www.w3.org/2000/svg"><path d="M34.363 24.186c5.516 0 10.003-4.487 10.003-10.003 0-1.27-.235-2.508-.699-3.68a1.172 1.172 0 10-2.179.863c.355.896.535 1.844.535 2.817 0 4.223-3.436 7.66-7.66 7.66-4.223 0-7.66-3.437-7.66-7.66 0-4.224 3.437-7.66 7.66-7.66a7.63 7.63 0 014.123 1.203 1.172 1.172 0 001.263-1.974 9.97 9.97 0 00-5.386-1.572c-5.516 0-10.003 4.487-10.003 10.003s4.487 10.003 10.003 10.003z" fill="#0EBAB9"/><path d="M33.035 8.715a1.81 1.81 0 00-1.807 1.807v7.324c0 .997.81 1.807 1.807 1.807h2.656a1.81 1.81 0 001.807-1.807v-7.324a1.81 1.81 0 00-1.807-1.807h-2.656zm2.12 8.595h-1.583v-6.251h1.582v6.25z" fill="#0EBAB9"/><path d="M78 38.074h-4.466a1.265 1.265 0 01-1.228-.932c-1.412-5.333-4.576-10.141-8.926-13.577V17.32a2.103 2.103 0 00-2.102-2.102 7.114 7.114 0 00-6.336 3.935 25.656 25.656 0 00-7.098-1.099c.354-1.23.544-2.529.544-3.87C48.388 6.45 42.096.158 34.363.158 26.63.16 20.34 6.45 20.34 14.183c0 1.511.24 2.967.684 4.332C8.896 20.828-.044 31.461 0 43.825A25.679 25.679 0 003.395 56.5a25.85 25.85 0 008.867 9.13c.425.26.69.734.69 1.235v9.182c0 .988.803 1.792 1.791 1.792h7.569a1.79 1.79 0 001.65-1.093l2.586-6.102a1.15 1.15 0 00.053-.155c.17-.635.748-1.08 1.406-1.08H38.4a1.172 1.172 0 100-2.343H28.007a3.805 3.805 0 00-3.646 2.732l-2.415 5.697h-6.65v-8.63c0-1.31-.693-2.549-1.807-3.233C6.539 59.367 2.373 51.96 2.344 43.816c-.04-11.402 8.336-21.185 19.618-23.089.224.424.47.834.734 1.23H20.94c-.877 0-1.59.714-1.59 1.591v3.07c0 .877.713 1.59 1.59 1.59h.926a1.172 1.172 0 100-2.344h-.173v-1.562h2.97c.656.63 1.373 1.195 2.141 1.69a1.172 1.172 0 00.53 2.216H47.58c.876 0 1.59-.713 1.59-1.59v-3.07c0-.877-.713-1.59-1.59-1.59h-1.55c.334-.5.637-1.021.905-1.563h.545c2.247 0 4.46.318 6.593.945l-2.856 7.489a1.172 1.172 0 002.19.835c4.317-11.32 3.297-8.644 3.456-9.06a4.753 4.753 0 014.173-3.036v12.186a1.172 1.172 0 102.344 0v-3.102c3.206 2.992 5.54 6.86 6.66 11.09a3.61 3.61 0 003.494 2.675h4.121a64.765 64.765 0 01-1.722 14.487l-.03.128H74.58c-3.704 0-7.292 1.608-9.846 4.41a23.432 23.432 0 01-5.054 4.185 3.778 3.778 0 00-1.816 3.24v8.63h-6.651l-2.414-5.698a3.805 3.805 0 00-3.647-2.733h-1.284a1.172 1.172 0 100 2.344h1.284c.658 0 1.237.444 1.407 1.08.014.053.031.105.053.155l2.586 6.102a1.789 1.789 0 001.65 1.093h7.568c.988 0 1.792-.804 1.792-1.792v-9.182c0-.509.261-.973.699-1.242a25.772 25.772 0 005.56-4.604c2.11-2.316 5.067-3.644 8.113-3.644h1.596c.932 0 1.733-.634 1.946-1.541l.093-.394A67.124 67.124 0 0080 40.068a2 2 0 00-2-1.994zM34.363 2.503c6.44 0 11.68 5.24 11.68 11.68 0 6.441-5.24 11.681-11.68 11.681-6.44 0-11.68-5.24-11.68-11.68 0-6.441 5.24-11.681 11.68-11.681zm12.462 23.361h-4.708a14.1 14.1 0 001.948-1.563h2.76v1.563z" fill="#0EBAB9"/></svg>