<svg width="60" height="60" fill="none" xmlns="http://www.w3.org/2000/svg"><path d="M35.625 22.5a.937.937 0 100-1.875.937.937 0 000 1.875zm-11.25 0a.937.937 0 100-1.875.937.937 0 000 1.875zM33.75 30h-1.875c0 1.034-.84 1.875-1.875 1.875A1.877 1.877 0 0128.125 30H26.25A3.754 3.754 0 0030 33.75 3.754 3.754 0 0033.75 30z" fill="#0EBAB9"/><path d="M46.053 44.333l-9.618-3.935a2.802 2.802 0 01-1.748-2.604v-.673a17.354 17.354 0 006.337-8.059h.226a4.693 4.693 0 004.688-4.687v-6.563c1.034 0 1.874-.84 1.874-1.875v-1.874c0-1.035-.84-1.876-1.874-1.876h-.716A15.92 15.92 0 0030 .938a15.92 15.92 0 00-15.222 11.25h-.716a1.876 1.876 0 00-1.874 1.876v1.874c0 1.035.84 1.876 1.874 1.876v6.562a4.693 4.693 0 004.688 4.688h.226a17.35 17.35 0 006.337 8.058v.673a2.801 2.801 0 01-1.748 2.603l-9.618 3.935a14.851 14.851 0 00-9.26 13.793v.938h50.626v-.938a14.85 14.85 0 00-9.26-13.792zm-30.115 1.212l3.75-1.534v7.551h-3.75v-6.017zm5.624-1.87l7.171 7.888h-7.17v-7.888zm9.705 7.888l7.17-7.888v7.888h-7.17zm9.046-7.553l3.75 1.534v6.019h-3.75V44.01zm1.325-16.862c.355-1.39.55-2.836.55-4.319v-1.094a2.809 2.809 0 011.874 2.64 2.808 2.808 0 01-2.424 2.773zm2.425-6.499a4.642 4.642 0 00-1.876-.866v-1.97h1.876v2.836zM32.525 3.045l-1.094 4.28A1.474 1.474 0 0130 8.438a1.474 1.474 0 01-1.43-1.11l-1.095-4.281A14.05 14.05 0 0130 2.813c.86 0 1.703.083 2.525.232zm-6.867.461l1.095 4.285A3.349 3.349 0 0030 10.312a3.349 3.349 0 003.248-2.521l1.095-4.285a14.042 14.042 0 018.919 8.681h-3.887v-1.874H37.5v1.874h-1.875v-1.874H33.75v1.874h-7.5v-1.874h-1.875v1.874H22.5v-1.874h-1.875v1.874h-3.887a14.042 14.042 0 018.92-8.68zM14.061 14.062h31.876v1.876H14.062v-1.876zm3.75 3.75v1.97a4.656 4.656 0 00-1.875.866v-2.835h1.876zm-1.875 6.563a2.81 2.81 0 011.876-2.64v1.094c0 1.483.194 2.93.549 4.32a2.808 2.808 0 01-2.424-2.774zm3.75-1.546v-5.017h20.625v5.017c0 6.584-4.13 12.42-10.312 14.617a15.492 15.492 0 01-10.313-14.617zm10.017 16.497l.296.1.296-.099a17.524 17.524 0 002.55-1.08 4.66 4.66 0 001.14 2.651A4.688 4.688 0 0130 43.125a4.69 4.69 0 01-3.987-2.227 4.654 4.654 0 001.14-2.652c.81.422 1.663.785 2.55 1.08zm-5.428 2.807c.08-.033.152-.078.23-.115A6.566 6.566 0 0030 45a6.566 6.566 0 005.494-2.982c.078.037.15.082.231.115l1.152.472L30 50.169l-6.877-7.564 1.153-.472zM6.596 57.187a12.965 12.965 0 017.466-10.851v10.852H6.596zm9.341 0v-3.75h28.126v3.75H15.936zm30 0v-10.85a12.965 12.965 0 017.468 10.852h-7.468z" fill="#0EBAB9"/></svg>