<svg width="70" height="70" fill="none" xmlns="http://www.w3.org/2000/svg"><path d="M64.084 0H5.916L.041 21.149 0 24.839a4.52 4.52 0 004.516 4.516c1.356 0 2.559-.612 3.387-1.56.829.948 2.031 1.56 3.387 1.56 1.356 0 2.559-.612 3.387-1.56.83.948 2.032 1.56 3.387 1.56 1.357 0 2.559-.612 3.388-1.56.828.948 2.03 1.56 3.387 1.56 1.356 0 2.558-.612 3.387-1.56.829.948 2.03 1.56 3.387 1.56 1.356 0 2.558-.612 3.387-1.56.829.948 2.031 1.56 3.387 1.56 1.356 0 2.559-.612 3.387-1.56.829.948 2.031 1.56 3.387 1.56 1.356 0 2.559-.612 3.387-1.56.83.948 2.032 1.56 3.387 1.56 1.356 0 2.559-.612 3.388-1.56.828.948 2.03 1.56 3.387 1.56 1.356 0 2.558-.612 3.387-1.56.828.948 2.03 1.56 3.387 1.56A4.52 4.52 0 0070 24.839v-3.387L64.084 0zM6.774 24.839a2.26 2.26 0 01-2.258 2.258 2.26 2.26 0 01-2.258-2.258V22.58h4.516v2.258zm.224-4.516H2.615L7.632 2.258h3.38L6.997 20.323zm6.55 4.516a2.26 2.26 0 01-2.258 2.258 2.26 2.26 0 01-2.258-2.258V22.58h4.516v2.258zm.173-4.516h-4.41l4.015-18.065h3.406l-3.01 18.065zm6.602 4.516a2.26 2.26 0 01-2.259 2.258 2.26 2.26 0 01-2.258-2.258V22.58h4.517v2.258zm.118-4.516H16.01l3.01-18.065h3.428l-2.007 18.065zm6.656 4.516a2.26 2.26 0 01-2.258 2.258 2.26 2.26 0 01-2.258-2.258V22.58h4.516v2.258zm.06-4.516h-4.444L24.72 2.258h3.442l-1.004 18.065zm6.714 4.516a2.26 2.26 0 01-2.258 2.258 2.26 2.26 0 01-2.258-2.258V22.58h4.516v2.258zm0-4.516h-4.452l1.004-18.065h3.448v18.065zm2.258-18.065h3.448l1.004 18.065h-4.452V2.258zm4.516 22.58a2.26 2.26 0 01-2.258 2.259 2.26 2.26 0 01-2.258-2.258V22.58h4.516v2.258zm1.194-22.58h3.44l2.008 18.065h-4.445L41.84 2.258zm5.58 22.58a2.26 2.26 0 01-2.258 2.259 2.26 2.26 0 01-2.258-2.258V22.58h4.516v2.258zm.133-22.58h3.427l3.011 18.065h-4.43L47.55 2.258zm6.642 22.58a2.26 2.26 0 01-2.259 2.259 2.26 2.26 0 01-2.258-2.258V22.58h4.517v2.258zm-.926-22.58h3.406l4.015 18.065h-4.41L53.268 2.258zm7.7 22.58a2.26 2.26 0 01-2.258 2.259 2.26 2.26 0 01-2.258-2.258V22.58h4.516v2.258zm-1.98-22.58h3.38l5.017 18.065h-4.383L58.988 2.258zm8.754 22.58a2.26 2.26 0 01-2.258 2.259 2.26 2.26 0 01-2.258-2.258V22.58h4.516v2.258zm-3.387 42.904h-4.516V53.986a3.383 3.383 0 002.258-3.18 3.391 3.391 0 00-3.387-3.386h-9.032a3.391 3.391 0 00-3.388 3.387c0 1.47.948 2.712 2.258 3.18v13.755h-4.516V53.986a3.382 3.382 0 002.258-3.18 3.391 3.391 0 00-3.387-3.386h-9.032a3.391 3.391 0 00-3.387 3.387c0 1.47.947 2.712 2.258 3.18v13.755h-4.516V55.323c0-5.603-4.558-10.161-10.161-10.161-5.604 0-10.162 4.558-10.162 10.161v12.42H5.645v-36.13H3.387V70h63.226V31.613h-2.258v36.13zm-47.42 0h-6.774V55.323c0-3.973 2.952-7.262 6.775-7.813v20.232zm9.033 0h-6.774V47.51c3.823.551 6.774 3.84 6.774 7.813v12.42zm15.806 0H35V58.71h6.774v9.032zm0-11.29H35v-2.258h6.774v2.258zm1.13-4.516H33.87a1.13 1.13 0 010-2.258h9.032a1.13 1.13 0 010 2.258zM57.58 67.742h-6.774V58.71h6.774v9.032zm0-11.29h-6.774v-2.258h6.774v2.258zm1.129-4.516h-9.032a1.13 1.13 0 010-2.258h9.032a1.13 1.13 0 010 2.258z" fill="#0EBAB9"/><path d="M22.58 56.451h-2.257v4.516h2.258v-4.516zm-6.774 0h-2.258v4.516h2.258v-4.516zm12.42-24.838v6.775H22.58v6.774h39.516v-2.258H24.839v-2.259h37.258v-2.258H57.58v-6.774h-6.775v6.775H46.29v-6.775h-6.774v6.775H35v-6.775h-6.774zm24.838 2.258h2.258v4.517h-2.258V33.87zm-11.29 0h2.258v4.517h-2.258V33.87zm-9.032 4.517h-2.258V33.87h2.258v4.517z" fill="#0EBAB9"/></svg>