<svg width="52" height="60" fill="none" xmlns="http://www.w3.org/2000/svg"><path d="M42.053 44.333l-9.618-3.935a2.802 2.802 0 01-1.748-2.604v-.673a17.354 17.354 0 006.337-8.059h.226a4.693 4.693 0 004.688-4.687v-7.5C41.938 8.087 34.788.937 26 .937H10.062v.938c0 .97.126 1.908.34 2.813H7.08l.182 1.092a14.38 14.38 0 003.324 7.07 15.982 15.982 0 00-.524 4.025v7.5a4.693 4.693 0 004.688 4.688h.226a17.35 17.35 0 006.336 8.058v.673a2.801 2.801 0 01-1.747 2.603l-9.618 3.935a14.852 14.852 0 00-9.26 13.793v.938h50.626v-.938a14.85 14.85 0 00-9.26-13.792zm-5.04 3.856l-7.76 2.91 2.01 3.016-4.61 3.072h-.514l.706-1.469c.202-.42 4.527-9.43 5.968-13.14l2.696 1.104 1.504 4.507zm-22.026 0l1.503-4.507 2.697-1.104c1.438 3.694 5.766 12.72 5.967 13.14l.706 1.47h-.513l-4.61-3.073L22.75 51.1l-7.762-2.91zM22.247 45h7.508c-1.218 2.749-2.799 6.115-3.755 8.133-.955-2.019-2.536-5.386-3.754-8.133zm15.391-17.852c.355-1.39.55-2.836.55-4.319v-1.094a2.809 2.809 0 011.874 2.64 2.808 2.808 0 01-2.424 2.773zM11.003 6.563c1.84 4.4 6.187 7.5 11.247 7.5h6.563v-1.876H22.25c-5.37 0-9.795-4.125-10.27-9.374H26c7.754 0 14.063 6.308 14.063 14.062v3.774a4.646 4.646 0 00-1.962-.875 4.688 4.688 0 00-4.601-3.837H21.468A12.483 12.483 0 019.343 6.563h1.66zm1.161 7.835c.524.443 1.066.863 1.649 1.226v4.158a4.656 4.656 0 00-1.876.866v-3.773c0-.835.082-1.662.227-2.477zm-.226 9.977c0-1.22.786-2.252 1.874-2.64v1.094c0 1.483.195 2.93.55 4.32a2.808 2.808 0 01-2.425-2.774zm3.75-1.546v-6.216c1.774.774 3.73 1.2 5.78 1.2H33.5a2.816 2.816 0 012.813 2.812v2.204c0 6.584-4.131 12.42-10.313 14.617a15.492 15.492 0 01-10.313-14.617zm7.466 15.417c.81.422 1.661.785 2.549 1.08l.297.1.296-.099a17.524 17.524 0 002.55-1.08 4.657 4.657 0 002.25 3.574 43.64 43.64 0 01-.53 1.305h-9.133a39.287 39.287 0 01-.53-1.305 4.659 4.659 0 002.25-3.575zM10.657 46.07l3.545-1.45-1.564 4.692 7.24 2.715-1.74 2.609 3.828 2.553H11.937v-5.626h-1.874v5.626H2.595a12.974 12.974 0 018.062-11.12zm31.28 11.118v-5.624h-1.874v5.624H30.034l3.829-2.552-1.74-2.61 7.24-2.714-1.564-4.693 3.545 1.45a12.976 12.976 0 018.062 11.12h-7.468z" fill="#0EBAB9"/></svg>