<svg width="24" height="12" viewBox="0 0 24 12" fill="none" xmlns="http://www.w3.org/2000/svg">
<path d="M0.274969 5.33639C0.275249 5.3361 0.275484 5.33578 0.275812 5.33549L5.17444 0.460497C5.54142 0.0952939 6.135 0.0966529 6.5003 0.463684C6.86555 0.830668 6.86414 1.42425 6.49716 1.7895L3.20822 5.06249H23.0625C23.5803 5.06249 24 5.48221 24 5.99999C24 6.51778 23.5803 6.93749 23.0625 6.93749H3.20827L6.49711 10.2105C6.86409 10.5757 6.8655 11.1693 6.50025 11.5363C6.13495 11.9034 5.54133 11.9046 5.17439 11.5395L0.275764 6.66449C0.275484 6.66421 0.275249 6.66389 0.274921 6.6636C-0.0922508 6.29714 -0.0910778 5.70164 0.274969 5.33639Z" fill="#0EBAB9"/>
</svg>
