<svg width="24" height="12" viewBox="0 0 24 12" fill="none" xmlns="http://www.w3.org/2000/svg">
<path d="M23.725 5.33639C23.7248 5.3361 23.7245 5.33578 23.7242 5.33549L18.8256 0.460497C18.4586 0.0952939 17.865 0.0966529 17.4997 0.463684C17.1345 0.830668 17.1359 1.42425 17.5028 1.7895L20.7918 5.06249H0.9375C0.419719 5.06249 0 5.48221 0 5.99999C0 6.51778 0.419719 6.93749 0.9375 6.93749H20.7917L17.5029 10.2105C17.1359 10.5757 17.1345 11.1693 17.4998 11.5363C17.865 11.9034 18.4587 11.9046 18.8256 11.5395L23.7242 6.66449C23.7245 6.66421 23.7248 6.66389 23.7251 6.6636C24.0923 6.29714 24.0911 5.70164 23.725 5.33639Z" fill="#0EBAB9"/>
</svg>
