<svg width="740" height="982" viewBox="0 0 740 982" fill="none" xmlns="http://www.w3.org/2000/svg">
<g opacity="0.35">
<path d="M739.885 530.8C738.057 486.834 705.972 450.647 654.188 409.887C610.637 374.62 488.727 274.782 488.727 274.782C522.64 247.766 530.437 238.608 556.553 217.992C635.845 154.789 625.312 94.3322 617.515 71.4419C602.392 28.8551 558.394 0 507.978 0H298.518H216.017H-55.7721C-135.985 0 -203.811 45.3331 -228.558 115.408C-255.147 191.436 -224.89 274.323 -147.438 336.618C-113.065 364.094 -51.1957 413.553 12.9742 464.851C-9.94536 471.263 -33.3127 483.168 -54.8519 503.784C-85.1087 532.639 -100.691 572.02 -98.8505 615.079C-96.5623 669.124 -67.2257 721.789 -15.8898 762.549L257.268 981.013L678.016 643.934C720.634 609.127 741.726 571.113 739.885 530.813V530.8ZM298.518 82.4273H507.978C523.1 82.4273 536.394 89.2993 539.603 98.4579C543.271 108.076 535.934 128.68 505.23 153.422C448.857 198.308 359.94 269.75 298.53 318.749V82.4273H298.518ZM-96.1022 271.576C-145.137 232.183 -165.769 183.644 -151.094 141.964C-138.26 105.33 -101.139 81.9675 -56.2323 81.9675H215.557V520.262C125.272 448.361 -32.3924 322.415 -96.1022 271.576ZM35.8939 697.047C3.8089 671.398 -14.9819 639.796 -16.3499 610.481C-17.2702 591.704 -10.8532 574.754 2.44093 562.389C49.6481 518.423 97.7755 530.788 147.271 570.628C164.221 583.913 198.147 610.929 216.017 625.592V841.297L35.8939 697.034V697.047ZM622.091 582.546L298.058 841.31V424.091C309.971 414.473 343.885 390.65 365.424 373.253C401.165 344.398 442.888 342.111 477.709 370.047C529.952 411.726 567.994 446.521 608.337 479.502C636.753 502.865 652.796 522.089 653.243 537.66C654.163 554.61 634.452 572.927 622.078 582.546H622.091Z" fill="#EBEFF2"/>
</g>
</svg>
