<svg width="724" height="543" viewBox="0 0 724 543" fill="none" xmlns="http://www.w3.org/2000/svg">
<path d="M723.918 315.82C722.565 283.282 698.813 256.502 660.478 226.338C628.238 200.238 537.991 126.353 537.991 126.353C563.096 106.36 568.868 99.5822 588.201 84.3252C646.899 37.5517 639.102 -7.1893 633.329 -24.1293C622.135 -55.6457 589.563 -77 552.242 -77H397.183H336.109H134.909C75.5294 -77 25.3191 -43.4511 6.99888 8.40798C-12.6838 64.6722 9.71469 126.013 67.0505 172.115C92.4963 192.449 138.297 229.051 185.801 267.014C168.834 271.759 151.535 280.569 135.59 295.826C113.192 317.181 101.656 346.324 103.019 378.19C104.713 418.186 126.43 457.161 164.433 487.325L366.646 649L678.117 399.545C709.667 373.785 725.28 345.653 723.918 315.829V315.82ZM397.183 -15.9996H552.242C563.436 -15.9996 573.278 -10.9139 575.653 -4.13605C578.369 2.98204 572.937 18.2299 550.207 36.5401C508.476 69.7579 442.652 122.629 397.192 158.89V-15.9996H397.183ZM105.053 123.98C68.7537 94.8276 53.4807 58.906 64.3439 28.0609C73.8447 0.949608 101.325 -16.3398 134.568 -16.3398H335.769V308.021C268.932 254.81 152.217 161.603 105.053 123.98ZM202.767 438.851C179.016 419.869 165.105 396.482 164.092 374.788C163.411 360.892 168.162 348.348 178.003 339.197C212.949 306.66 248.577 315.81 285.218 345.294C297.766 355.126 322.88 375.119 336.109 385.971V545.604L202.767 438.841V438.851ZM636.717 354.114L396.842 545.613V236.849C405.662 229.731 430.767 212.101 446.712 199.226C473.17 177.872 504.057 176.18 529.834 196.854C568.509 227.699 596.671 253.449 626.535 277.856C647.571 295.146 659.447 309.373 659.779 320.896C660.46 333.44 645.868 346.996 636.708 354.114H636.717Z" fill="white" fill-opacity="0.65"/>
</svg>
