<svg width="495" height="77" viewBox="0 0 495 77" fill="none" xmlns="http://www.w3.org/2000/svg">
<path d="M31.9994 39.1306C36.7302 40.123 40.2253 42.0017 42.485 44.7662C44.8151 47.4602 45.9801 51.0399 45.9801 55.5059C45.9801 68.5496 36.2714 75.0712 16.8536 75.0712C10.1458 75.0712 4.63821 74.9296 0.331012 74.646H0.225098L0.9665 54.1237L0.225098 6.38L21.4079 6.27366C27.9746 6.27366 33.0586 7.7269 36.6597 10.6333C40.3313 13.4689 42.1672 17.6159 42.1672 23.0743C42.1672 26.9022 41.2846 30.1986 39.5192 32.9633C37.7541 35.657 35.2475 37.7129 31.9994 39.1306ZM30.9403 24.3503C30.9403 20.9476 29.987 18.502 28.0805 17.0133C26.1741 15.5247 22.9613 14.7803 18.4423 14.7803H11.2401L10.9225 35.728L21.8316 36.0471C24.9384 35.2673 27.2334 33.9557 28.7161 32.1125C30.1988 30.1986 30.9403 27.6113 30.9403 24.3503ZM18.6541 66.5647C23.8793 66.5647 27.9041 65.5723 30.7285 63.5874C33.5529 61.6025 34.9651 58.6959 34.9651 54.868C34.9651 48.7715 31.0463 45.1917 23.2085 44.1283L10.8166 44.2347L10.7106 53.1667L11.0283 66.2457C13.7821 66.4583 16.324 66.5647 18.6541 66.5647ZM80.9213 25.52C81.6982 25.52 82.5807 25.5909 83.5692 25.7326V36.0471L82.4043 36.3659C81.2745 36.0116 79.9682 35.8342 78.4854 35.8342C76.2963 35.8342 74.2488 36.6495 72.3424 38.2801C70.4359 39.9104 68.6 42.5334 66.8349 46.1487L66.7289 53.1667L67.3643 74.646H56.5611L57.3023 54.1237L56.667 26.3707L66.9405 25.4135L66.8349 35.1963H67.5761C69.4826 31.7937 71.6009 29.3481 73.931 27.8594C76.2612 26.2998 78.5914 25.52 80.9213 25.52ZM92.5703 54.1237L92.2526 26.3707L102.844 25.4135L102.42 53.1667L102.738 74.646H92.1466L92.5703 54.1237ZM97.6541 2.76468C99.4195 2.76468 100.796 3.29633 101.785 4.35966C102.774 5.3521 103.268 6.76989 103.268 8.613C103.268 10.527 102.738 12.0511 101.679 13.1853C100.62 14.3196 99.1723 14.8867 97.3366 14.8867C95.5007 14.8867 94.0531 14.355 92.994 13.2917C92.0056 12.2283 91.5113 10.7751 91.5113 8.932C91.5113 7.08888 92.0407 5.60021 93.1 4.466C94.2295 3.33178 95.7477 2.76468 97.6541 2.76468ZM137.055 24.6693C139.314 24.6693 141.609 24.9174 143.939 25.4135C146.269 25.9097 148.317 26.5834 150.082 27.4339L148.281 36.4723L147.222 36.8976C143.48 34.7001 140.02 33.6014 136.843 33.6014C133.1 33.6014 130.17 35.0191 128.052 37.8546C125.933 40.6902 124.874 44.66 124.874 49.7639C124.874 55.2223 125.969 59.4757 128.158 62.524C130.346 65.5013 133.453 66.99 137.478 66.99C141.009 66.99 144.786 65.9266 148.811 63.8L149.764 64.4379L148.705 73.1573C144.398 74.7879 140.091 75.6029 135.783 75.6029C129.146 75.6029 123.956 73.4054 120.214 69.0104C116.542 64.5444 114.707 58.4123 114.707 50.6147C114.707 42.5334 116.684 36.1887 120.638 31.5811C124.592 26.9732 130.064 24.6693 137.055 24.6693ZM169.444 53.0603L170.186 74.646H159.383L160.124 54.0173L159.488 0.850669L170.292 0L169.444 53.0603ZM181.519 47.9564C186.532 55.1161 192.852 63.3745 200.477 72.732V74.0081C198.642 74.5043 196.664 74.8586 194.546 75.0712C192.428 75.3548 191.122 75.5322 190.627 75.6029L189.462 75.1777C182.189 65.9621 176.046 57.2072 171.033 48.9134V48.169L184.908 30.305L187.556 25.6264H199.312L181.519 47.9564Z" fill="#0EBAB9"/>
<path d="M321.321 25.0947C327.463 25.0947 332.159 27.1503 335.407 31.262C338.656 35.3734 340.277 41.151 340.277 48.5943C340.277 57.2427 338.196 63.9062 334.029 68.5851C329.863 73.2637 324.074 75.6029 316.659 75.6029C313.057 75.6029 309.458 74.7879 305.856 73.1573L299.078 75.922L297.489 74.8586L298.23 54.2299L297.595 0.850671L308.398 0L307.974 32.4316H308.609C310.798 30.5177 312.846 29.029 314.754 27.9656C316.659 26.8315 318.848 25.8745 321.321 25.0947ZM317.083 68.1596C321.177 68.1596 324.39 66.7064 326.722 63.8C329.052 60.8227 330.216 56.3567 330.216 50.402C330.216 45.0853 329.298 41.0093 327.463 38.1736C325.628 35.2673 322.98 33.8141 319.518 33.8141C315.776 33.8141 311.892 35.9406 307.869 40.194L307.658 52.9541L307.974 65.2887C311.152 67.2026 314.189 68.1596 317.083 68.1596ZM375.417 25.52C376.195 25.52 377.076 25.5909 378.065 25.7326V36.0471L376.9 36.3659C375.771 36.0116 374.463 35.8344 372.982 35.8344C370.793 35.8344 368.745 36.6495 366.837 38.2801C364.932 39.9104 363.097 42.5334 361.33 46.1487L361.224 53.1667L361.859 74.646H351.056L351.799 54.1237L351.164 26.3707L361.438 25.4135L361.33 35.1963H362.073C363.978 31.7937 366.096 29.3481 368.426 27.8594C370.758 26.2998 373.087 25.52 375.417 25.52ZM387.066 54.1237L386.747 26.3707L397.34 25.4135L396.916 53.1667L397.232 74.646H386.642L387.066 54.1237ZM392.149 2.76468C393.914 2.76468 395.292 3.29633 396.281 4.35966C397.27 5.3521 397.762 6.76988 397.762 8.613C397.762 10.527 397.232 12.0511 396.175 13.1853C395.116 14.3196 393.668 14.8867 391.833 14.8867C389.995 14.8867 388.55 14.355 387.49 13.2917C386.501 12.2283 386.007 10.7751 386.007 8.932C386.007 7.08888 386.537 5.60021 387.596 4.466C388.725 3.33178 390.244 2.76468 392.149 2.76468ZM431.551 24.6693C433.81 24.6693 436.104 24.9174 438.434 25.4135C440.766 25.9097 442.811 26.5834 444.579 27.4339L442.776 36.4723L441.717 36.8976C437.974 34.7001 434.515 33.6014 431.338 33.6014C427.595 33.6014 424.666 35.0191 422.547 37.8546C420.428 40.6902 419.369 44.66 419.369 49.7639C419.369 55.2223 420.464 59.4757 422.652 62.524C424.841 65.5013 427.949 66.99 431.973 66.99C435.504 66.99 439.282 65.9266 443.306 63.8L444.26 64.4379L443.2 73.1573C438.893 74.7879 434.586 75.6029 430.278 75.6029C423.641 75.6029 418.45 73.4054 414.71 69.0104C411.038 64.5444 409.201 58.4125 409.201 50.6147C409.201 42.5334 411.179 36.1887 415.132 31.5811C419.088 26.9731 424.56 24.6693 431.551 24.6693ZM463.942 53.0603L464.682 74.646H453.879L454.622 54.0173L453.984 0.850671L464.788 1.98838e-06L463.942 53.0603ZM476.016 47.9564C481.028 55.1161 487.349 63.3745 494.975 72.732V74.0081C493.137 74.5043 491.162 74.8586 489.043 75.0712C486.925 75.3548 485.619 75.5322 485.125 75.6029L483.958 75.1777C476.686 65.9621 470.543 57.2072 465.531 48.9134V48.169L479.404 30.305L482.052 25.6264H493.81L476.016 47.9564Z" fill="#0EBAB9"/>
<path d="M234.166 58.7621C235.719 58.7621 237.366 58.3368 239.109 57.4861L239.815 57.9823L239.109 62.5192C236.519 63.748 234.118 64.4568 231.907 64.6458C228.987 64.1732 226.868 63.2044 225.552 61.7394C224.233 60.2271 223.575 58.0532 223.575 55.2176L223.857 50.1137L223.787 36.2904H219.338L219.056 35.8649L219.409 31.6825H223.716V26.5076L230.071 24.0974L230.706 24.6645L230.565 31.6825H239.603L239.886 32.1787L239.532 36.2904H230.424L230.071 54.0835C230.023 55.8321 230.305 57.0608 230.918 57.7696C231.576 58.4312 232.658 58.7621 234.166 58.7621ZM257.777 30.9027C262.343 30.9027 265.852 32.344 268.297 35.227C270.794 38.0624 272.039 42.1032 272.039 47.349C272.039 52.9727 270.724 57.2971 268.086 60.3217C265.45 63.3464 261.707 64.8584 256.858 64.8584C252.294 64.8584 248.764 63.4407 246.267 60.6053C243.821 57.7223 242.596 53.6582 242.596 48.4124C242.596 42.7886 243.914 38.4643 246.55 35.4396C249.187 32.415 252.929 30.9027 257.777 30.9027ZM257.352 35.9359C251.986 35.9359 249.304 39.5747 249.304 46.8528C249.304 51.2951 249.964 54.5797 251.28 56.7062C252.598 58.833 254.624 59.8962 257.352 59.8962C260.036 59.8962 262.039 58.9984 263.354 57.2025C264.674 55.4068 265.332 52.6658 265.332 48.9793C265.332 44.537 264.674 41.2526 263.354 39.1258C262.039 36.9993 260.036 35.9359 257.352 35.9359Z" fill="#0EBAB9"/>
<path d="M272.938 70.6588H219.445V76.9137H272.938V70.6588Z" fill="#0EBAB9"/>
</svg>
