<svg width="70" height="70" viewBox="0 0 70 70" fill="none" xmlns="http://www.w3.org/2000/svg">
<path d="M33.8711 27.0967V33.8709H70.0001V27.0967H33.8711ZM67.7421 31.6128H36.1292V29.3547H67.7421V31.6128Z" fill="#0EBAB9"/>
<path d="M36.1289 24.8385H38.387V23.1359L51.9354 12.7149L65.4837 23.1359V24.8385H67.7418V22.0249L51.9354 9.86523L36.1289 22.0249V24.8385Z" fill="#0EBAB9"/>
<path d="M70 57.5807C70 54.4127 68.9105 51.3067 66.9313 48.833L65.9423 47.5967C65.2795 46.7669 64.2894 46.2904 63.2258 46.2904C62.3824 46.2904 61.5921 46.6009 60.9677 47.1383V45.1614H54.1936V51.9356H57.6473C56.8682 53.7059 56.4516 55.6309 56.4516 57.5807C56.4516 60.9306 58.8982 63.7125 62.0968 64.2533V67.742H56.4516V57.5807V56.4517H47.4194V67.742H36.129V64.2533C39.3276 63.7136 41.7742 60.9317 41.7742 57.5807C41.7742 54.4127 40.6847 51.3067 38.7055 48.833L37.7164 47.5967C37.0537 46.7669 36.0635 46.2904 35 46.2904C33.9365 46.2904 32.9463 46.7669 32.2847 47.5956L31.2945 48.833C29.3153 51.3067 28.2258 54.4127 28.2258 57.5807C28.2258 60.9306 30.6724 63.7125 33.871 64.2533V67.742H23.7097V56.4517H14.6774V67.742H7.90323V64.2533C11.1018 63.7136 13.5484 60.9317 13.5484 57.5807C13.5484 54.7627 12.6813 51.9965 11.0984 49.6775H12.4194V42.9033H5.64516V46.4993C5.03097 46.7104 4.47548 47.0728 4.05887 47.5956L3.06871 48.833C1.08952 51.3067 0 54.4127 0 57.5807C0 60.9306 2.44661 63.7125 5.64516 64.2533V67.742H2.25806V64.3549H0V70.0001H5.64516H7.90323H33.871H36.129H62.0968H64.3548H70V64.3549H67.7419V67.742H64.3548V64.2533C67.5534 63.7125 70 60.9306 70 57.5807ZM7.90323 45.1614H10.1613V47.4195H9.31339C8.92048 46.9938 8.43952 46.6845 7.90323 46.4993V45.1614ZM5.64516 56.4517V61.9366C3.70323 61.4319 2.25806 59.6796 2.25806 57.5807C2.25806 54.923 3.17258 52.3183 4.83113 50.2443L5.82129 49.0057C6.055 48.7144 6.40161 48.5485 6.77419 48.5485C7.14677 48.5485 7.49339 48.7144 7.7271 49.0069L8.71726 50.2443C10.3758 52.3183 11.2903 54.923 11.2903 57.5807C11.2903 59.6796 9.84516 61.4319 7.90323 61.9366V56.4517H5.64516ZM21.4516 67.742H16.9355V58.7098H21.4516V67.742ZM33.871 56.4517V61.9366C31.929 61.4319 30.4839 59.6796 30.4839 57.5807C30.4839 54.923 31.3984 52.3183 33.0569 50.2443L34.0471 49.0057C34.2808 48.7144 34.6274 48.5485 35 48.5485C35.3726 48.5485 35.7192 48.7144 35.9529 49.0069L36.9431 50.2443C38.6016 52.3183 39.5161 54.923 39.5161 57.5807C39.5161 59.6796 38.071 61.4319 36.129 61.9366V56.4517H33.871ZM54.1936 67.742H49.6774V58.7098H54.1936V67.742ZM56.4516 49.6775V47.4195H58.7097V49.6775H56.4516ZM62.0968 56.4517V61.9366C60.1548 61.4319 58.7097 59.6796 58.7097 57.5807C58.7097 54.923 59.6242 52.3183 61.2827 50.2443L62.2729 49.0057C62.5066 48.7144 62.8532 48.5485 63.2258 48.5485C63.5984 48.5485 63.945 48.7144 64.1787 49.0069L65.1689 50.2443C66.8274 52.3183 67.7419 54.923 67.7419 57.5807C67.7419 59.6796 66.2968 61.4319 64.3548 61.9366V56.4517H62.0968Z" fill="#0EBAB9"/>
<path d="M38.387 36.1289H36.1289V45.1612H38.387V36.1289Z" fill="#0EBAB9"/>
<path d="M67.742 36.1289H65.4839V45.1612H67.742V36.1289Z" fill="#0EBAB9"/>
<path d="M60.9676 36.1289H54.1934V42.9031H60.9676V36.1289ZM58.7095 40.645H56.4514V38.387H58.7095V40.645Z" fill="#0EBAB9"/>
<path d="M49.6775 36.1289H42.9033V42.9031H49.6775V36.1289ZM47.4195 40.645H45.1614V38.387H47.4195V40.645Z" fill="#0EBAB9"/>
<path d="M21.4514 15.8066H14.6772V22.5808H21.4514V15.8066ZM19.1934 20.3228H16.9353V18.0647H19.1934V20.3228Z" fill="#0EBAB9"/>
<path d="M30.4842 15.8066H23.71V22.5808H30.4842V15.8066ZM28.2261 20.3228H25.968V18.0647H28.2261V20.3228Z" fill="#0EBAB9"/>
<path d="M12.4192 15.8066H5.64502V22.5808H12.4192V15.8066ZM10.1611 20.3228H7.90308V18.0647H10.1611V20.3228Z" fill="#0EBAB9"/>
<path d="M21.4514 24.8389H14.6772V31.6131H21.4514V24.8389ZM19.1934 29.355H16.9353V27.0969H19.1934V29.355Z" fill="#0EBAB9"/>
<path d="M30.4842 24.8389H23.71V31.6131H30.4842V24.8389ZM28.2261 29.355H25.968V27.0969H28.2261V29.355Z" fill="#0EBAB9"/>
<path d="M12.4192 24.8389H5.64502V31.6131H12.4192V24.8389ZM10.1611 29.355H7.90308V27.0969H10.1611V29.355Z" fill="#0EBAB9"/>
<path d="M21.4514 33.8711H14.6772V40.6453H21.4514V33.8711ZM19.1934 38.3872H16.9353V36.1292H19.1934V38.3872Z" fill="#0EBAB9"/>
<path d="M30.4842 33.8711H23.71V40.6453H30.4842V33.8711ZM28.2261 38.3872H25.968V36.1292H28.2261V38.3872Z" fill="#0EBAB9"/>
<path d="M5.64502 40.6453H12.4192V33.8711H5.64502V40.6453ZM7.90308 36.1292H10.1611V38.3872H7.90308V36.1292Z" fill="#0EBAB9"/>
<path d="M14.6772 49.6775H21.4514V42.9033H14.6772V49.6775ZM16.9353 45.1614H19.1934V47.4195H16.9353V45.1614Z" fill="#0EBAB9"/>
<path d="M23.71 49.6775H30.4842V42.9033H23.71V49.6775ZM25.968 45.1614H28.2261V47.4195H25.968V45.1614Z" fill="#0EBAB9"/>
<path d="M42.9033 51.9353H49.6775V45.1611H42.9033V51.9353ZM45.1614 47.4192H47.4195V49.6773H45.1614V47.4192Z" fill="#0EBAB9"/>
<path d="M2.25806 13.5481H33.871V19.1933H36.129V11.29H0V48.5481H2.25806V13.5481Z" fill="#0EBAB9"/>
<path d="M5.64527 6.77419H30.484V9.03226H32.742V4.51613H30.484V0H5.64527V4.51613H3.38721V9.03226H5.64527V6.77419ZM7.90334 2.25806H28.2259V4.51613H7.90334V2.25806Z" fill="#0EBAB9"/>
</svg>
