<svg width="51" height="51" viewBox="0 0 51 51" fill="none" xmlns="http://www.w3.org/2000/svg">
<g clip-path="url(#clip0)">
<path d="M50.2739 13.3921C50.2738 13.3921 50.2738 13.3921 50.2737 13.3921L50.272 13.3904L46.9801 12.9207C46.5174 12.8548 46.1958 12.4263 46.2617 11.9636C46.2933 11.7413 46.4121 11.5407 46.5917 11.406L49.2523 9.41052C49.6262 9.1301 49.702 8.59972 49.4215 8.22578L46.3751 4.16381C46.0946 3.78987 45.5643 3.71413 45.1903 3.99456L42.5306 5.99C42.1582 6.27254 41.6274 6.19977 41.3449 5.82742C41.2077 5.64664 41.1489 5.41826 41.1817 5.19369L41.6522 1.9018C41.7185 1.43911 41.3972 1.01038 40.9347 0.943952C40.9343 0.943952 40.934 0.943846 40.9337 0.943846L35.9104 0.22623C35.4478 0.1598 35.0189 0.48095 34.9525 0.943634C34.9525 0.94374 34.9525 0.94374 34.9525 0.943846L34.4819 4.23574C34.416 4.69842 33.9875 5.0201 33.5248 4.9542C33.3025 4.92257 33.1019 4.80378 32.9672 4.62416L30.9726 1.96357C30.6921 1.58964 30.1618 1.5139 29.7878 1.79432L27.2449 3.7026C26.0944 3.58032 24.9342 3.58032 23.7837 3.7026C16.2494 4.56376 10.341 10.5723 9.60657 18.1201C9.58372 18.3596 9.57526 18.5974 9.56341 18.8352H9.30954C8.908 18.8359 8.5622 19.1188 8.48191 19.5121L7.89716 22.2929L5.55475 20.6774C5.21858 20.4455 4.76457 20.4868 4.47579 20.7756L1.93706 23.3143C1.6487 23.603 1.60744 24.0564 1.83889 24.3924L3.44676 26.7306L0.66515 27.3154C0.276089 27.4006 -0.000844311 27.7456 1.93412e-06 28.1438V31.5288C-0.000209627 31.9291 0.280215 32.2748 0.67192 32.3573L3.45353 32.9421L1.84566 35.2802C1.61421 35.6163 1.65547 36.0697 1.94383 36.3583L4.48256 38.8971C4.77134 39.1859 5.22535 39.2272 5.56152 38.9952L7.8997 37.3832L8.48445 40.1648C8.56474 40.5582 8.91054 40.841 9.31208 40.8418H12.6971C13.0973 40.842 13.443 40.5615 13.5255 40.1698L14.1103 37.3882L16.4485 38.9961C16.7845 39.2275 17.2379 39.1863 17.5266 38.8979L18.8408 37.5795V39.9913C18.8446 41.1952 19.4895 42.3058 20.5333 42.9057V47.6075C20.5333 49.4769 22.0488 50.9925 23.9183 50.9925H27.3032C29.1727 50.9925 30.6882 49.4769 30.6882 47.6075V42.9057C31.732 42.3058 32.3769 41.1952 32.3807 39.9913V36.6418C32.4037 35.2325 33.141 33.9314 34.3381 33.1875C35.0404 32.7319 35.7064 32.2225 36.3301 31.6642L35.2012 30.4033C34.6433 30.9035 34.0471 31.3593 33.4182 31.7666C31.7379 32.8213 30.7093 34.658 30.6882 36.6418V39.9913C30.6882 40.9261 29.9305 41.6838 28.9957 41.6838H22.2258C21.291 41.6838 20.5333 40.9261 20.5333 39.9913V36.5716C20.5137 34.6253 19.5013 32.824 17.849 31.7954C11.1418 27.5809 9.12093 18.7272 13.3354 12.0199C15.9503 7.85841 20.5139 5.32549 25.4288 5.30793C25.4162 5.33808 25.4051 5.36886 25.3958 5.40017C25.3644 5.62231 25.4226 5.84794 25.5574 6.02724L27.552 8.68699C27.7623 8.95916 27.7825 9.33299 27.6028 9.62632C27.4298 9.92144 27.0952 10.0824 26.7566 10.0334L23.4647 9.56285C23.002 9.49652 22.5733 9.81778 22.5068 10.2804C22.5068 10.2807 22.5067 10.281 22.5067 10.2813L21.7883 15.3072C21.7219 15.7697 22.0432 16.1986 22.5058 16.265C22.5061 16.265 22.5064 16.2651 22.5067 16.2651L25.7986 16.7356C26.2613 16.8015 26.583 17.23 26.5171 17.6927C26.4855 17.9151 26.3667 18.1156 26.187 18.2504L23.5273 20.245C23.1534 20.5254 23.0776 21.0558 23.358 21.4297L26.4045 25.4917C26.685 25.8657 27.2153 25.9414 27.5893 25.661L30.2499 23.6664C30.6241 23.3865 31.1545 23.4629 31.4344 23.8373C31.5683 24.0164 31.626 24.2413 31.5946 24.4627L31.1249 27.7546C31.0585 28.2172 31.3796 28.6461 31.8423 28.7125C31.8424 28.7125 31.8424 28.7125 31.8425 28.7125L36.8692 29.431C36.9088 29.4361 36.9486 29.4386 36.9885 29.4386C37.4098 29.4391 37.7673 29.1296 37.8271 28.7125L38.2968 25.4206C38.3627 24.9579 38.7912 24.6363 39.2539 24.7022C39.4763 24.7338 39.6768 24.8526 39.8116 25.0322L41.807 27.692C42.0875 28.0659 42.6178 28.1416 42.9918 27.8612L47.0538 24.8147C47.4277 24.5343 47.5034 24.0039 47.223 23.63L45.2284 20.9702C45.0191 20.6976 44.9989 20.3244 45.1776 20.0309C45.347 19.7319 45.6846 19.5698 46.0239 19.6247L49.3158 20.0944C49.7783 20.1608 50.2073 19.8395 50.2737 19.377C50.2737 19.3769 50.2737 19.3769 50.2737 19.3768L50.9913 14.3501C51.0578 13.8874 50.7366 13.4585 50.2739 13.3921ZM22.2258 43.3763H28.9957V45.0687H22.2258V43.3763ZM22.2258 46.7612H28.9957V47.6075C28.9957 48.5423 28.238 49.3 27.3032 49.3H23.9183C22.9835 49.3 22.2258 48.5423 22.2258 47.6075V46.7612ZM15.4888 32.1677C15.9509 32.5456 16.4337 32.8974 16.9351 33.2213C17.7346 33.7266 18.3365 34.4911 18.6402 35.3869L16.825 37.1987L15.0674 35.9868C14.2977 35.4565 13.2438 35.6505 12.7133 36.4201C12.5862 36.6047 12.4969 36.8127 12.4508 37.032L12.0074 39.145H9.99585L9.55241 37.0353C9.35989 36.1207 8.46234 35.5352 7.54766 35.7277C7.32838 35.7738 7.12041 35.8631 6.93582 35.9902L5.17733 37.1987L3.63547 35.6602L4.84645 33.9034C5.37736 33.134 5.18399 32.0801 4.41465 31.5491C4.22996 31.4217 4.02178 31.3322 3.80218 31.286L1.69249 30.8417V28.831L3.80218 28.3867C4.71655 28.1928 5.30067 27.2944 5.10677 26.38C5.06076 26.163 4.97264 25.9573 4.84729 25.7744L3.63547 24.0125L5.17733 22.474L6.93667 23.6858C7.70665 24.2157 8.76054 24.021 9.29039 23.2511C9.41733 23.0667 9.5064 22.8589 9.55241 22.6399L9.70051 21.9358C9.83612 22.9109 10.0607 23.8714 10.3716 24.8054C7.58711 25.1374 5.59897 27.6638 5.93091 30.4483C6.26285 33.2327 8.78931 35.2209 11.5738 34.889C13.25 34.689 14.7173 33.6692 15.4888 32.1677ZM14.1746 30.9754C13.5427 32.7319 11.6066 33.6435 9.85008 33.0117C8.09359 32.3797 7.18198 30.4436 7.8138 28.6871C8.29722 27.3434 9.57304 26.4484 11.0011 26.4514C11.0121 26.4514 11.0222 26.4514 11.0332 26.4514C11.8115 28.1294 12.8742 29.6599 14.1746 30.9754ZM48.7132 18.2969L46.2591 17.9466C44.8711 17.7484 43.5852 18.713 43.387 20.1009C43.2918 20.7674 43.4653 21.4445 43.8693 21.9832L45.3562 23.9659L42.6482 25.9969L41.1605 24.015C40.3193 22.8932 38.7281 22.6657 37.6064 23.5068C37.0677 23.9107 36.7116 24.5121 36.6162 25.1786L36.2734 27.6361L32.9232 27.1571L33.2735 24.703C33.4723 23.3151 32.5082 22.0288 31.1202 21.8301C30.4533 21.7346 29.7759 21.9081 29.2369 22.3124L27.2542 23.7992L25.2232 21.0912L27.2051 19.6035C28.3269 18.7624 28.5544 17.1711 27.7133 16.0494C27.3094 15.5108 26.708 15.1546 26.0415 15.0592L23.5874 14.7089L24.0664 11.3586L26.5205 11.7089C27.9084 11.9077 29.1947 10.9436 29.3934 9.55566C29.4889 8.88871 29.3154 8.21129 28.9111 7.67234L27.4192 5.68789L30.1272 3.65691L31.6149 5.63966C32.456 6.76146 34.0473 6.989 35.169 6.14783C35.7076 5.74396 36.0638 5.1426 36.1592 4.47607L36.5095 2.02196L39.8598 2.50009L39.5095 4.9542C39.3112 6.34225 40.2758 7.62812 41.6638 7.82635C42.3303 7.92156 43.0074 7.74808 43.5461 7.344L45.5288 5.85714L47.5598 8.56513L45.5771 10.0528C44.4553 10.894 44.2277 12.4852 45.0689 13.6069C45.4728 14.1456 46.0741 14.5017 46.7406 14.5972L49.1948 14.9475L48.7132 18.2969Z" fill="#0EBAB9"/>
<path d="M36.3886 8.05737C32.6497 8.05737 29.6187 11.0884 29.6187 14.8273C29.6187 18.5663 32.6497 21.5973 36.3886 21.5973C40.1275 21.5973 43.1586 18.5663 43.1586 14.8273C43.1543 11.0901 40.1258 8.0615 36.3886 8.05737ZM36.3886 19.9048C33.5844 19.9048 31.3111 17.6316 31.3111 14.8273C31.3111 12.0231 33.5844 9.74986 36.3886 9.74986C39.1929 9.74986 41.4661 12.0231 41.4661 14.8273C41.4628 17.6302 39.1915 19.9015 36.3886 19.9048Z" fill="#0EBAB9"/>
<path d="M26.4571 37.4526H24.7646V39.9914H26.4571V37.4526Z" fill="#0EBAB9"/>
<path d="M21.9095 29.1416C16.6855 27.1009 14.105 21.2117 16.1458 15.9877C16.9366 13.9635 18.3559 12.2464 20.195 11.0887L19.2903 9.65686C13.7542 13.1446 12.0935 20.4598 15.5812 25.9959C16.9319 28.14 18.9346 29.7945 21.2951 30.7165C23.3845 31.517 24.7642 33.5226 24.7647 35.7601H26.4572C26.4598 32.8245 24.6508 30.1917 21.9095 29.1416Z" fill="#0EBAB9"/>
<path d="M47.6132 31.5288H41.6895V33.2213H47.6132V31.5288Z" fill="#0EBAB9"/>
<path d="M41.3851 35.9555L40.3018 37.2559L45.3796 41.4864L46.4629 40.186L41.3851 35.9555Z" fill="#0EBAB9"/>
<path d="M38.3043 38.2988H36.6118V44.2225H38.3043V38.2988Z" fill="#0EBAB9"/>
<path d="M7.63375 12.9363L0.864258 14.6285L1.27448 16.2696L8.04397 14.5774L7.63375 12.9363Z" fill="#0EBAB9"/>
<path d="M3.2532 4.60776L2.27002 5.98425L8.19326 10.215L9.17645 8.83855L3.2532 4.60776Z" fill="#0EBAB9"/>
<path d="M11.1602 0.00703985L9.52051 0.42627L11.2513 7.1957L12.891 6.77647L11.1602 0.00703985Z" fill="#0EBAB9"/>
</g>
<defs>
<clipPath id="clip0">
<rect width="51" height="51" fill="white"/>
</clipPath>
</defs>
</svg>
