<svg width="376" height="332" viewBox="0 0 376 332" fill="none" xmlns="http://www.w3.org/2000/svg">
<path d="M356.72 0.0546875H239.489C228.846 0.0546875 220.208 8.69273 220.208 19.336V136.567C220.208 147.21 228.846 155.848 239.489 155.848H295.598C294.865 186.544 287.731 211.108 274.234 229.58C263.591 244.156 247.472 256.227 225.915 265.752C216.004 270.109 211.724 281.832 216.351 291.627L230.234 320.935C234.707 330.344 245.775 334.471 255.338 330.344C280.867 319.315 302.424 305.355 320.008 288.388C341.449 267.68 356.141 244.311 364.085 218.242C372.029 192.174 376.001 156.619 376.001 111.501V19.336C376.001 8.69311 367.363 0.0546875 356.72 0.0546875Z" fill="#F8F9FA"/>
<path d="M40.8907 330.267C66.1107 319.276 87.5516 305.317 105.252 288.388C126.886 267.68 141.655 244.388 149.599 218.512C157.543 192.637 161.514 156.966 161.514 111.501V19.336C161.514 8.69273 152.877 0.0546875 142.233 0.0546875H25.0025C14.3592 0.0546875 5.7212 8.69273 5.7212 19.336V136.567C5.7212 147.21 14.3592 155.848 25.0025 155.848H81.1112C80.3785 186.544 73.2444 211.108 59.7475 229.58C49.1042 244.156 32.985 256.227 11.4285 265.751C1.51787 270.109 -2.76259 281.832 1.86493 291.627L15.7089 320.858C20.1826 330.267 31.3272 334.432 40.8907 330.267Z" fill="#F8F9FA"/>
</svg>
