<svg width="80" height="80" viewBox="0 0 80 80" fill="none" xmlns="http://www.w3.org/2000/svg">
<path d="M59.3333 54.6673V41.334C59.3262 34.7096 53.9577 29.3411 47.3333 29.334H26C19.3757 29.3411 14.0072 34.7096 14 41.334V58.6673H16.6667V41.334C16.6725 36.1816 20.8477 32.0065 26 32.0007H28.1146L35.724 39.61C36.2448 40.1302 37.0885 40.1302 37.6094 39.61L45.2188 32.0007H47.3333C52.4857 32.0065 56.6608 36.1816 56.6667 41.334V54.6673H59.3333ZM36.6667 36.7819L31.8854 32.0007H41.4479L36.6667 36.7819Z" fill="#0EBAB9"/>
<path d="M23.3335 44H26.0002V56H23.3335V44Z" fill="#0EBAB9"/>
<path d="M47.333 44H49.9997V53.3333H47.333V44Z" fill="#0EBAB9"/>
<path d="M75.3331 58.667H58.3292C55.3904 57.0583 52.1032 56.193 48.753 56.1468C48.6521 56.1377 48.5466 56.1338 48.4529 56.1338C45.0017 56.1338 41.6052 56.999 38.5746 58.6507L28.6664 58.667C25.7211 58.667 23.3331 61.055 23.3331 64.0003C23.3318 64.1058 23.3383 64.2113 23.3519 64.3161C23.3715 64.682 23.4301 65.0439 23.5251 65.3975L16.0088 61.9534L15.8878 61.8936L11.3982 59.8428C9.6371 59.0322 7.58372 59.1755 5.95156 60.2217C4.31874 61.2686 3.33176 63.0745 3.33307 65.0133V65.307C3.3233 67.4652 4.54596 69.4391 6.48215 70.3922L23.7224 79.0257C25.0199 79.6657 26.4463 79.999 27.893 80.0003H75.3331C76.0694 80.0003 76.6664 79.4033 76.6664 78.667V60.0003C76.6664 59.264 76.0694 58.667 75.3331 58.667ZM56.6664 77.3337H27.893C26.8565 77.3317 25.8337 77.0928 24.904 76.6351L7.67161 68.0003C6.64557 67.4958 5.99648 66.4508 5.99973 65.307V65.0133C5.99973 63.9834 6.52382 63.0244 7.39166 62.4684C8.25885 61.9124 9.34934 61.8369 10.2849 62.2673L14.7374 64.3005L14.8572 64.359L25.4424 69.2126C25.6176 69.2926 25.8077 69.3337 25.9997 69.3337H40.6664V66.667H28.6664C27.2419 66.6689 26.07 65.5452 26.0121 64.1214C26.0102 64.0771 26.0062 64.0322 25.9997 63.9886C26.0062 62.5205 27.1983 61.3337 28.6664 61.3337H38.893C39.1215 61.3337 39.3461 61.2751 39.5453 61.1631L39.865 60.9827C42.4887 59.5576 45.4249 58.8037 48.4105 58.7881C48.4913 58.8044 48.5733 58.8128 48.656 58.8135C51.4444 58.8402 54.1885 59.5205 56.6664 60.8005V77.3337ZM73.9997 77.3337H59.3331V61.3337H73.9997V77.3337Z" fill="#0EBAB9"/>
<path d="M62 72H64.6667V74.6667H62V72Z" fill="#0EBAB9"/>
<path d="M36.6667 26.6667C42.5553 26.6602 47.3268 21.888 47.3333 16V10.6667C47.3333 4.77539 42.5579 0 36.6667 0C30.7754 0 26 4.77539 26 10.6667V16C26.0065 21.888 30.7786 26.6602 36.6667 26.6667ZM28.6667 10.6667C28.6667 6.2487 32.2487 2.66667 36.6667 2.66667C41.0853 2.66667 44.6667 6.2487 44.6667 10.6667V16C44.6667 20.418 41.0853 24 36.6667 24C32.2487 24 28.6667 20.418 28.6667 16V10.6667Z" fill="#0EBAB9"/>
<path d="M34.0002 10.6667C34.0028 9.53711 34.7144 8.5306 35.7788 8.15169L34.8882 5.63867C32.7599 6.39518 31.3368 8.40755 31.3335 10.6667V12H34.0002V10.6667Z" fill="#0EBAB9"/>
</svg>
