<svg width="80" height="80" viewBox="0 0 80 80" fill="none" xmlns="http://www.w3.org/2000/svg">
<path d="M77.0381 72.9744H63.5361V60.5899C63.5361 59.9426 63.0116 59.418 62.3642 59.418C61.7169 59.418 61.1923 59.9426 61.1923 60.5899V72.9744H58.6075C58.75 72.5887 58.828 72.1719 58.828 71.7373V51.6299C58.828 49.6552 57.2216 48.0488 55.2469 48.0488H24.1691C22.1944 48.0488 20.588 49.6552 20.588 51.6299V71.7373C20.588 72.1719 20.6659 72.5887 20.8084 72.9744H18.2236V51.9354C18.2236 48.7866 20.2862 46.0374 23.2434 45.2382L35.3105 42.7741C35.4219 42.8952 35.5337 43.0163 35.6469 43.136C36.8055 44.3702 38.2864 45.0494 39.8122 45.0494C39.8217 45.0493 39.8305 45.0493 39.8397 45.0494C41.3695 45.0494 42.8487 44.3715 44.0037 43.1416C44.1044 43.0351 44.2031 42.9283 44.3014 42.8218L56.1711 45.239C59.1291 46.0379 61.1922 48.7873 61.1922 51.9366V55.1485C61.1922 55.7958 61.7167 56.3204 62.3641 56.3204C63.0114 56.3204 63.5359 55.7958 63.5359 55.1485V51.9366C63.5359 48.6296 61.8216 45.6499 59.1559 44.0041C59.1528 41.3487 59.7634 39.831 60.408 38.2329C61.1636 36.3601 61.9448 34.4233 61.8178 30.8682C61.6905 27.2996 60.7753 25.5285 59.8903 23.8157C59.0886 22.2641 58.3312 20.7987 58.2227 17.7554C58.1966 17.0226 58.1844 16.2548 58.1727 15.5121C58.0992 10.8744 58.0233 6.07913 54.7952 2.96694C51.568 -0.14462 46.7689 -0.0505578 42.1284 0.0425672C41.385 0.0572547 40.6162 0.072411 39.8819 0.072411C39.1159 0.072411 38.3125 0.0544422 37.5355 0.0369422C32.9775 -0.0647765 28.265 -0.170401 25.0702 2.86944C22.4744 5.33944 21.9295 8.99132 21.7391 12.2377C21.7013 12.8838 22.1942 13.4383 22.8403 13.4763C23.4855 13.5133 24.0409 13.021 24.0789 12.3751C24.2427 9.58507 24.6805 6.47554 26.6859 4.56741C29.18 2.19429 33.4005 2.28866 37.4833 2.38007C38.2733 2.39772 39.09 2.416 39.8822 2.416C40.6398 2.416 41.4203 2.40054 42.1752 2.38569C46.3386 2.30241 50.642 2.21788 53.1691 4.65413C55.6958 7.09022 55.7637 11.3904 55.8297 15.549C55.8416 16.303 55.8539 17.0826 55.8809 17.8388C56.0083 21.4076 56.9234 23.1787 57.8086 24.8915C58.6102 26.443 59.3675 27.9083 59.4761 30.9516C59.5852 34.0087 58.9294 35.6346 58.235 37.3557C57.6119 38.9004 56.9719 40.4893 56.8377 42.9927C56.805 42.9837 56.773 42.9733 56.7402 42.9646C56.7183 42.9588 56.6962 42.9537 56.6741 42.949L44.9011 40.5513C44.7644 39.6254 44.7261 38.7087 44.7833 37.7482C44.9839 37.6115 45.1795 37.4665 45.3687 37.3127C50.5677 33.1099 53.095 29.4629 53.095 26.1632C53.095 25.8166 53.0809 25.476 53.0519 25.1354C52.9805 24.4085 52.9353 21.4329 52.937 17.5546C52.9372 17.0963 52.6703 16.6801 52.2539 16.4891C51.8375 16.2983 51.348 16.3673 51.0006 16.6662C49.4623 17.9904 47.4978 18.7198 45.4689 18.7198C42.1717 18.7198 39.1478 16.7851 37.7648 13.7908C37.5733 13.376 37.158 13.1104 36.7009 13.1104C36.2439 13.1104 35.8286 13.376 35.637 13.7908C34.2556 16.7818 31.2366 18.7154 27.9437 18.7198L27.8972 18.7185C27.5881 18.7227 27.2855 18.8368 27.0633 19.0557C26.8412 19.2744 26.7155 19.5729 26.7141 19.8846C26.7005 22.6146 26.6592 24.5804 26.6028 25.1548C26.575 25.4713 26.5609 25.8105 26.5609 26.163C26.5609 29.4627 29.0872 33.1088 34.2814 37.3073C34.463 37.4549 34.6508 37.594 34.8428 37.726C34.8956 38.6601 34.8534 39.5691 34.7133 40.5037L22.7403 42.9485C22.7183 42.953 22.6964 42.9582 22.6745 42.964C22.6491 42.9707 22.6241 42.9788 22.5986 42.9858C22.4972 40.4646 21.8784 38.8601 21.2761 37.3002C20.6033 35.5582 19.968 33.9126 20.1189 30.8238C20.2692 27.7474 21.0473 26.2754 21.8713 24.7169C22.7786 23.0008 23.7167 21.2262 23.8925 17.6293C23.9241 16.9827 23.4256 16.4332 22.7792 16.4016C22.1273 16.3705 21.5831 16.8685 21.5516 17.5149C21.4012 20.5913 20.6231 22.0633 19.7992 23.6218C18.8919 25.3379 17.9538 27.1126 17.778 30.7094C17.6028 34.294 18.3589 36.2516 19.0898 38.1448C19.7158 39.7657 20.3086 41.3048 20.2666 43.9991C17.5975 45.6443 15.8802 48.6258 15.8802 51.9354V72.9746H2.96187C1.32875 72.9744 0 74.3021 0 75.9343C0 78.1762 1.82563 80.0001 4.06938 80.0001H75.9306C78.1744 80.0001 80 78.1762 80 75.9343C80 74.3021 78.6712 72.9744 77.0381 72.9744ZM28.9044 26.1632C28.9044 25.8788 28.9155 25.6085 28.9361 25.3723C29.0037 24.6855 29.0355 22.7919 29.05 21.0054C32.1153 20.6849 34.9036 19.0599 36.7005 16.5873C38.7137 19.3576 41.9706 21.0637 45.4683 21.0637C47.2695 21.0637 49.0314 20.6132 50.5975 19.7705C50.6073 21.8479 50.6359 24.5204 50.7177 25.3499C50.7398 25.6094 50.7509 25.8832 50.7509 26.1637C50.7509 28.6396 48.3802 31.8646 43.8928 35.4923C42.752 36.419 41.3148 36.9287 39.8398 36.9287C39.8355 36.9287 39.8308 36.9287 39.8264 36.9287C39.8223 36.9287 39.8184 36.9287 39.8142 36.9287C38.3416 36.9287 36.9019 36.4177 35.757 35.4868C31.2741 31.863 28.9044 28.6391 28.9044 26.1632ZM39.8097 39.2723H39.8445C40.7195 39.2723 41.5859 39.1398 42.4137 38.8858C42.4277 39.6566 42.4973 40.4149 42.6253 41.1833C42.518 41.2999 42.4086 41.4173 42.2977 41.5348C41.5883 42.2901 40.7156 42.7057 39.8334 42.7057C39.8286 42.7057 39.8234 42.7057 39.8187 42.7057C38.9409 42.7057 38.0664 42.289 37.3537 41.5296C37.2305 41.399 37.1084 41.2677 36.9883 41.1366C37.1166 40.3718 37.1889 39.6248 37.2069 38.8741C38.0456 39.1355 38.9236 39.2723 39.8097 39.2723ZM75.9306 77.6563H4.06938C3.11781 77.6563 2.34375 76.8838 2.34375 75.9343C2.34375 75.5946 2.62094 75.3183 2.96187 75.3183H28.1862C28.8336 75.3183 29.3581 74.7938 29.3581 74.1465C29.3581 73.4991 28.8336 72.9746 28.1862 72.9746H24.1691C23.4869 72.9746 22.9317 72.4196 22.9317 71.7374V51.6299C22.9317 50.9477 23.4869 50.3926 24.1691 50.3926H55.2469C55.9291 50.3926 56.4842 50.9477 56.4842 51.6299V71.7373C56.4842 72.4194 55.9291 72.9744 55.2469 72.9744H33.5766C32.9292 72.9744 32.4047 73.499 32.4047 74.1463C32.4047 74.7937 32.9292 75.3182 33.5766 75.3182H77.0381C77.3791 75.3182 77.6562 75.5946 77.6562 75.9341C77.6562 76.8838 76.8822 77.6563 75.9306 77.6563Z" fill="#0EBAB9"/>
<path d="M39.7081 65.6172C41.8788 65.6172 43.6446 63.8523 43.6446 61.6831C43.6446 59.5139 41.8787 57.749 39.7081 57.749C37.5374 57.749 35.7715 59.5139 35.7715 61.6831C35.7715 63.8523 37.5373 65.6172 39.7081 65.6172ZM39.7081 60.0928C40.5863 60.0928 41.3009 60.8061 41.3009 61.6831C41.3009 62.56 40.5863 63.2734 39.7081 63.2734C38.8298 63.2734 38.1152 62.5601 38.1152 61.6831C38.1152 60.8062 38.8298 60.0928 39.7081 60.0928Z" fill="#0EBAB9"/>
</svg>
