<svg width="70" height="64" viewBox="0 0 70 64" fill="none" xmlns="http://www.w3.org/2000/svg">
<path d="M67.5935 19.926H66.9253L60.6607 3.05969C60.1122 1.58299 58.6854 0.59082 57.1102 0.59082H12.8897C11.3146 0.59082 9.88764 1.58299 9.33912 3.05969L3.07467 19.926H2.40652C1.07953 19.926 0 21.0055 0 22.3325V24.266C0 25.593 1.07953 26.6725 2.40652 26.6725H2.76227V49.1477C2.76227 49.714 3.22123 50.1731 3.78766 50.1731C4.35408 50.1731 4.81305 49.714 4.81305 49.1477V26.6725H20.913C21.814 26.6725 22.6611 26.3217 23.2984 25.6845L35 13.9826L46.7019 25.6845C47.339 26.3216 48.1861 26.6724 49.0871 26.6724H65.1871V29.3909C65.1871 29.9572 65.6461 30.4163 66.2125 30.4163C66.7789 30.4163 67.2379 29.9572 67.2379 29.3909V26.6724H67.5936C68.9205 26.6724 70.0001 25.5928 70.0001 24.2659V22.3324C70 21.0055 68.9205 19.926 67.5935 19.926ZM11.2615 3.77363C11.5131 3.09646 12.1674 2.6416 12.8897 2.6416H57.1102C57.8324 2.6416 58.4868 3.0966 58.7383 3.77363L64.7377 19.926H50.4844L37.3852 6.82697C36.7481 6.18986 35.9011 5.83891 35 5.83891C34.0989 5.83891 33.2519 6.18973 32.6148 6.82697L19.5156 19.926H5.26217L11.2615 3.77363ZM67.9492 24.266C67.9492 24.4622 67.7897 24.6217 67.5935 24.6217H49.0871C48.7338 24.6217 48.4016 24.4842 48.1519 24.2344L35.725 11.8075C35.5327 11.6151 35.2719 11.5071 34.9999 11.5071C34.7278 11.5071 34.4672 11.6151 34.2747 11.8075L21.8479 24.2344C21.5981 24.4842 21.2659 24.6217 20.9126 24.6217H2.40652C2.21033 24.6217 2.05078 24.4622 2.05078 24.266V22.3325C2.05078 22.1363 2.21033 21.9768 2.40652 21.9768H19.9404C20.2124 21.9768 20.4731 21.8688 20.6656 21.6764L34.0651 8.27701C34.3148 8.02723 34.6469 7.88969 35.0001 7.88969C35.3534 7.88969 35.6855 8.02723 35.9352 8.27701L49.3347 21.6764C49.5271 21.8688 49.7878 21.9768 50.0598 21.9768H67.5938C67.7899 21.9768 67.9495 22.1363 67.9495 22.3325V24.266H67.9492Z" fill="#0EBAB9"/>
<path d="M61.6547 55.1218C62.2211 55.1218 62.68 54.6627 62.68 54.0964V35.8662C62.68 35.2999 62.2211 34.8408 61.6547 34.8408H47.8437C47.2773 34.8408 46.8184 35.2999 46.8184 35.8662V54.0964C46.8184 54.6627 47.2773 55.1218 47.8437 55.1218H61.6547ZM60.6293 48.6516H55.7745V43.797H60.6293V48.6516ZM53.7237 48.6516H48.8691V43.797H53.7237V48.6516ZM60.6293 53.071H48.8691V50.7024H60.6293V53.071ZM60.6293 41.7461H55.7745V36.8915H60.6293V41.7461ZM53.7237 36.8916V41.7462H48.8691V36.8916H53.7237Z" fill="#0EBAB9"/>
<path d="M22.1556 55.1218C22.7221 55.1218 23.181 54.6627 23.181 54.0964V35.8662C23.181 35.2999 22.7221 34.8408 22.1556 34.8408H8.34473C7.7783 34.8408 7.31934 35.2999 7.31934 35.8662V54.0964C7.31934 54.6627 7.7783 55.1218 8.34473 55.1218H22.1556ZM21.1303 48.6516H16.2756V43.797H21.1303V48.6516ZM14.2249 48.6516H9.37012V43.797H14.2249V48.6516ZM21.1303 53.071H9.37012V50.7024H21.1303V53.071ZM21.1303 41.7461H16.2756V36.8915H21.1303V41.7461ZM14.2249 36.8916V41.7462H9.37012V36.8916H14.2249Z" fill="#0EBAB9"/>
<path d="M38.3143 39.2617H31.6851C31.1186 39.2617 30.6597 39.7208 30.6597 40.2871V44.7065C30.6597 45.2728 31.1186 45.7319 31.6851 45.7319H38.3143C38.8807 45.7319 39.3397 45.2728 39.3397 44.7065V40.2871C39.3397 39.7208 38.8807 39.2617 38.3143 39.2617ZM37.2889 43.6812H32.7105V41.3125H37.2889V43.6812Z" fill="#0EBAB9"/>
<path d="M40.4448 26.3374C40.4448 23.3352 38.0023 20.8926 35 20.8926C31.9977 20.8926 29.5552 23.3352 29.5552 26.3374C29.5552 29.3396 31.9977 31.7824 35 31.7824C38.0023 31.7824 40.4448 29.3397 40.4448 26.3374ZM31.606 26.3374C31.606 24.466 33.1286 22.9434 35 22.9434C36.8714 22.9434 38.394 24.466 38.394 26.3374C38.394 28.2088 36.8714 29.7316 35 29.7316C33.1286 29.7316 31.606 28.2089 31.606 26.3374Z" fill="#0EBAB9"/>
<path d="M68.9746 56.6627H67.2379V34.1875C67.2379 33.6212 66.7789 33.1621 66.2125 33.1621C65.6461 33.1621 65.1871 33.6212 65.1871 34.1875V56.6627H43.7594V35.8671C43.7594 35.3008 43.3005 34.8417 42.734 34.8417H27.266C26.6995 34.8417 26.2406 35.3008 26.2406 35.8671V56.6627H4.81291V53.9442C4.81291 53.3779 4.35395 52.9188 3.78752 52.9188C3.22109 52.9188 2.76213 53.3779 2.76213 53.9442V56.6627H1.02539C0.458965 56.6627 0 57.1218 0 57.6881V62.3838C0 62.9501 0.458965 63.4092 1.02539 63.4092H68.9746C69.541 63.4092 70 62.9501 70 62.3838V57.6881C70 57.1218 69.541 56.6627 68.9746 56.6627ZM28.2913 49.184H29.7521C30.3185 49.184 30.7774 48.7249 30.7774 48.1587C30.7774 47.5924 30.3185 47.1333 29.7521 47.1333H28.2913V36.8925H41.7088V56.6627H28.2913V49.184ZM67.9492 61.3584H2.05078V58.7135H67.9492V61.3584Z" fill="#0EBAB9"/>
</svg>
