<svg width="60" height="60" viewBox="0 0 60 60" fill="none" xmlns="http://www.w3.org/2000/svg">
<path d="M17.7302 32.818C17.7302 32.3318 17.3356 31.9373 16.8495 31.9373H15.8516V30.9393C15.8516 30.4532 15.457 30.0586 14.9708 30.0586C14.4842 30.0586 14.0901 30.4532 14.0901 30.9393V31.9373H13.0922C12.6056 31.9373 12.2114 32.3318 12.2114 32.818C12.2114 33.3041 12.6056 33.6987 13.0922 33.6987H14.0901V34.6967C14.0901 35.1828 14.4842 35.5774 14.9708 35.5774C15.457 35.5774 15.8516 35.1828 15.8516 34.6967V33.6987H16.8495C17.3361 33.6987 17.7302 33.3041 17.7302 32.818Z" fill="#0EBAB9"/>
<path d="M28.1215 33.6987H29.1194V34.6967C29.1194 35.1828 29.514 35.5774 30.0001 35.5774C30.4863 35.5774 30.8809 35.1828 30.8809 34.6967V33.6987H31.8788C32.3649 33.6987 32.7595 33.3041 32.7595 32.818C32.7595 32.3318 32.3649 31.9373 31.8788 31.9373H30.8809V30.9393C30.8809 30.4532 30.4863 30.0586 30.0001 30.0586C29.514 30.0586 29.1194 30.4532 29.1194 30.9393V31.9373H28.1215C27.6353 31.9373 27.2407 32.3318 27.2407 32.818C27.2407 33.3041 27.6353 33.6987 28.1215 33.6987Z" fill="#0EBAB9"/>
<path d="M59.4342 58.3521L52.955 54.7018V16.7908H59.1193C59.6622 16.7908 60.0851 16.2817 59.9849 15.7475L57.1669 0.718231C57.0891 0.301666 56.7252 0 56.3013 0H45.0293C44.6054 0 44.2419 0.301666 44.1637 0.718231L41.3457 15.7475C41.2459 16.2817 41.6684 16.7908 42.2113 16.7908H45.0879V19.726H45.0293C44.5432 19.726 44.1486 20.1201 44.1486 20.6067C44.1486 21.0928 44.5432 21.4874 45.0293 21.4874H45.0879V24.364C45.0879 24.8502 45.4825 25.2448 45.9686 25.2448C46.4552 25.2448 46.8494 24.8502 46.8494 24.364V21.4874H46.908C47.3946 21.4874 47.7887 21.0928 47.7887 20.6067C47.7887 20.1201 47.3946 19.726 46.908 19.726H46.8494V16.7908H48.3755V54.7476L44.9707 56.7508V42.2113C44.9707 39.136 42.4686 36.6339 39.3933 36.6339C39.3736 36.6339 39.3544 36.6353 39.3347 36.6357V30C39.3347 26.4066 36.4114 23.4833 32.818 23.4833H12.1527C8.55927 23.4833 5.63599 26.4066 5.63599 30V36.6357C5.6163 36.6353 5.59708 36.6339 5.57739 36.6339C2.50214 36.6339 0 39.136 0 42.2113V59.1193C0 59.6059 0.394134 60 0.880737 60H59.0021C59.3916 60 59.7432 59.7336 59.8494 59.3587C59.9583 58.9723 59.7844 58.5493 59.4342 58.3521ZM1.76147 42.2113C1.76147 40.1074 3.47305 38.3954 5.57739 38.3954C7.68127 38.3954 9.39331 40.1074 9.39331 42.2113V58.2385H1.76147V42.2113ZM11.1548 50.6067H14.0703C14.5569 50.6067 14.951 50.2126 14.951 49.726C14.951 49.2398 14.5569 48.8452 14.0703 48.8452H11.1548V42.2113C11.1548 39.7733 9.58145 37.6968 7.39746 36.9406V30C7.39746 27.3779 9.53064 25.2448 12.1527 25.2448H32.818C35.4401 25.2448 37.5732 27.3779 37.5732 30V36.9406C35.3893 37.6968 33.8159 39.7733 33.8159 42.2113V48.8452H18.2195C17.7328 48.8452 17.3387 49.2398 17.3387 49.726C17.3387 50.2126 17.7328 50.6067 18.2195 50.6067H33.8164V58.2385H11.1548V50.6067ZM43.2092 58.2385H35.5774V42.2113C35.5774 40.1074 37.2894 38.3954 39.3933 38.3954C41.4977 38.3954 43.2092 40.1074 43.2092 42.2113V58.2385ZM45.7603 1.76147H55.5707L58.0582 15.0293H43.2724L45.7603 1.76147ZM51.1935 16.7908V54.4812H50.137V16.7908H51.1935ZM45.9151 58.2385L49.3085 56.2427H52.0743C52.083 56.2427 52.0912 56.2418 52.0995 56.2413L55.6448 58.2385H45.9151Z" fill="#0EBAB9"/>
<path d="M11.2133 18.6694H33.7572C34.2433 18.6694 34.6379 18.2748 34.6379 17.7887V0.880737C34.6379 0.394134 34.2433 0 33.7572 0H11.2133C10.7267 0 10.3325 0.394134 10.3325 0.880737V17.7887C10.3325 18.2748 10.7267 18.6694 11.2133 18.6694ZM12.094 1.76147H32.8765V16.908H12.094V1.76147Z" fill="#0EBAB9"/>
<path d="M30.9391 2.81799H14.0311C13.5445 2.81799 13.1504 3.21213 13.1504 3.69873V14.9707C13.1504 15.4568 13.5445 15.8514 14.0311 15.8514H30.9391C31.4252 15.8514 31.8198 15.4568 31.8198 14.9707V3.69873C31.8198 3.21213 31.4257 2.81799 30.9391 2.81799ZM30.0583 14.09H14.9119V4.57947H30.0583V14.09Z" fill="#0EBAB9"/>
<path d="M22.0403 12.9126C22.3122 13.0719 22.6583 13.0719 22.9302 12.9126C23.9139 12.3363 27.1233 10.3075 27.1233 8.39538C27.1233 7.59109 26.7063 6.55608 25.7743 6.05712C25.1348 5.71517 24.0636 5.52749 22.4852 6.4215C20.9069 5.52703 19.8352 5.71517 19.1962 6.05712C18.2642 6.55608 17.8472 7.59109 17.8472 8.39538C17.8472 10.3079 21.0565 12.3363 22.0403 12.9126ZM20.0275 7.61031C20.1255 7.55767 20.244 7.53204 20.3813 7.53204C20.7869 7.53204 21.3513 7.75817 21.9968 8.18847C22.2925 8.38576 22.6779 8.38576 22.9737 8.18847C23.837 7.61306 24.5552 7.40203 24.943 7.60986C25.2318 7.76458 25.3618 8.16238 25.3618 8.39538C25.3618 8.89663 24.0393 10.133 22.4848 11.1209C20.9302 10.1344 19.6086 8.898 19.6086 8.39538C19.6086 8.16238 19.7386 7.76458 20.0275 7.61031Z" fill="#0EBAB9"/>
</svg>
