<svg width="51" height="51" viewBox="0 0 51 51" fill="none" xmlns="http://www.w3.org/2000/svg">
<g clip-path="url(#clip0)">
<path d="M41.4552 16.691C41.3142 16.3989 41.0196 16.214 40.6955 16.214H28.5224L35.5485 1.38016C35.6726 1.11847 35.654 0.812035 35.4987 0.567224C35.3451 0.323257 35.0758 0.174683 34.7862 0.174683H17.9027C17.4958 0.174683 17.1463 0.465079 17.0729 0.865218L12.852 23.6579C12.8064 23.9044 12.8723 24.1585 13.0335 24.351C13.1931 24.5443 13.4311 24.6558 13.6818 24.6558H23.4245L13.7384 49.6763C13.5881 50.0654 13.7443 50.5061 14.1065 50.7129C14.2373 50.7889 14.3825 50.8252 14.5252 50.8252C14.7759 50.8252 15.0215 50.7138 15.187 50.5061L41.3564 17.5833C41.5574 17.3292 41.5962 16.9831 41.4552 16.691ZM17.3143 45.116L25.4437 24.1163C25.5442 23.8563 25.5104 23.5642 25.3534 23.3338C25.1956 23.105 24.9347 22.9674 24.6561 22.9674H14.6965L18.6051 1.86303H33.4524L26.4264 16.6969C26.3023 16.9586 26.3208 17.265 26.4762 17.5098C26.6298 17.7538 26.8991 17.9024 27.1886 17.9024H38.9463L17.3143 45.116Z" fill="#0EBAB9"/>
<path d="M8.61705 24.6559H0.175293V26.3442H8.61705V24.6559Z" fill="#0EBAB9"/>
<path d="M50.8255 24.6559H42.3838V26.3442H50.8255V24.6559Z" fill="#0EBAB9"/>
<path d="M49.8058 0.423109L43.897 6.33191L45.0908 7.52574L50.9996 1.61694L49.8058 0.423109Z" fill="#0EBAB9"/>
<path d="M5.91173 42.6305L0.00292969 48.5393L1.19676 49.7331L7.10556 43.8244L5.91173 42.6305Z" fill="#0EBAB9"/>
<path d="M45.0898 43.4751L43.896 44.6689L49.8048 50.5777L50.9986 49.3839L45.0898 43.4751Z" fill="#0EBAB9"/>
<path d="M1.19383 0.421523L0 1.61536L5.9088 7.52416L7.10263 6.33033L1.19383 0.421523Z" fill="#0EBAB9"/>
</g>
<defs>
<clipPath id="clip0">
<rect width="51" height="51" fill="white"/>
</clipPath>
</defs>
</svg>
