<svg width="187" height="421" viewBox="0 0 187 421" fill="none" xmlns="http://www.w3.org/2000/svg">
<path d="M186.889 219.531C186.322 199.857 176.374 183.663 160.319 165.423C146.816 149.641 109.017 104.964 109.017 104.964C119.532 92.8747 121.95 88.7763 130.047 79.5506C154.631 51.2675 151.365 24.2134 148.948 13.97C144.259 -5.08742 130.617 -18 114.986 -18H50.0433H24.464H-59.8041C-84.6739 -18 -105.703 2.28644 -113.376 33.6448C-121.62 67.6668 -112.239 104.759 -88.225 132.636C-77.5677 144.931 -58.3852 167.064 -38.4893 190.019C-45.5955 192.889 -52.8405 198.216 -59.5187 207.442C-68.8999 220.354 -73.7312 237.977 -73.1605 257.246C-72.451 281.431 -63.3553 304.998 -47.4386 323.238L37.2536 421L167.706 270.159C180.92 254.582 187.459 237.571 186.889 219.537V219.531ZM50.0433 18.8859H114.986C119.675 18.8859 123.797 21.9612 124.791 26.0596C125.929 30.3638 123.654 39.5839 114.134 50.6558C96.6558 70.742 69.087 102.712 50.0471 124.639V18.8859H50.0433ZM-72.3084 103.53C-87.5117 85.9012 -93.9085 64.1801 -89.3586 45.5286C-85.3795 29.1348 -73.87 18.6802 -59.9467 18.6802H24.3214V214.816C-3.67162 182.64 -52.5552 126.279 -72.3084 103.53ZM-31.3831 293.926C-41.331 282.448 -47.1571 268.307 -47.5813 255.188C-47.8666 246.786 -45.877 239.201 -41.7552 233.667C-27.1186 213.993 -12.1968 219.526 3.14925 237.354C8.40468 243.299 18.9232 255.389 24.464 261.951V358.478L-31.3831 293.921V293.926ZM150.367 242.687L49.9006 358.484V171.779C53.5944 167.475 64.1091 156.815 70.7874 149.029C81.8689 136.117 94.805 135.094 105.601 147.595C121.799 166.246 133.594 181.817 146.102 196.576C154.913 207.03 159.887 215.633 160.026 222.601C160.311 230.186 154.199 238.383 150.363 242.687H150.367Z" fill="white" fill-opacity="0.35"/>
</svg>
