<svg width="51" height="51" viewBox="0 0 51 51" fill="none" xmlns="http://www.w3.org/2000/svg">
<path d="M47.6533 22.9509H45.9537V9.35113C45.9537 8.88131 45.5729 8.5012 45.1035 8.5012H39.9552L38.2649 3.14615C38.1939 2.92264 38.0345 2.73855 37.8245 2.63649C37.6135 2.53422 37.37 2.52421 37.151 2.60752L30.229 5.24552L27.1199 0.393098C26.9976 0.201975 26.8039 0.0673162 26.5817 0.0202281C26.3601 -0.0296299 26.1272 0.013623 25.9387 0.139546L13.1769 8.5012H6.00441C2.72017 8.50482 0.0587358 11.1667 0.0546875 14.4509V45.0501C0.0587358 48.3343 2.72017 50.9962 6.00441 51H45.1035C45.5729 51 45.9537 50.6193 45.9537 50.1499V39.9501H47.6533C49.5313 39.9501 51.0535 38.4279 51.0535 36.5506V26.3508C51.0535 24.4726 49.5313 22.9509 47.6533 22.9509ZM47.6533 24.6507C48.5923 24.6507 49.3534 25.4114 49.3534 26.3508C49.3534 27.2896 48.5923 28.0504 47.6533 28.0504H45.9537V24.6507H47.6533ZM44.2534 10.2013V18.7008H43.1767L40.4925 10.2013H44.2534ZM41.3946 18.7008H38.9169L36.5603 11.6322C36.4448 11.2852 36.1199 11.0506 35.7539 11.0508C34.8905 11.0535 34.0617 10.7105 33.4529 10.0984L32.9546 9.59999C32.7202 9.36541 32.3703 9.28849 32.0588 9.40354L6.9108 18.7008H6.00441C4.8711 18.7006 3.78488 18.2467 2.98907 17.4401L36.9153 4.52066L41.3946 18.7008ZM37.1252 18.7008H11.8118L32.1383 11.1867L32.2508 11.3001C33.0253 12.0788 34.0385 12.5761 35.1283 12.7114L37.1252 18.7008ZM26.1492 2.03351L28.6029 5.86597L8.77835 13.4156L26.1492 2.03351ZM6.00441 10.2013H10.582L2.00235 15.8224C1.84404 15.3825 1.76009 14.9186 1.75476 14.4509C1.75774 12.105 3.65874 10.2036 6.00441 10.2013ZM44.2534 49.2997H6.00441C3.65874 49.297 1.75774 47.3958 1.75476 45.0501V18.6158C1.76286 18.6232 1.77159 18.6303 1.77926 18.6388C1.84574 18.705 1.91605 18.766 1.9853 18.829C2.05391 18.8919 2.12784 18.9639 2.20348 19.027C2.27933 19.0901 2.35242 19.1408 2.42699 19.197C2.50178 19.2533 2.58189 19.3176 2.66328 19.3743C2.74489 19.4299 2.82394 19.4732 2.90405 19.5228C2.98416 19.5722 3.06939 19.6281 3.15888 19.6758C3.24837 19.7231 3.33317 19.7606 3.42074 19.804C3.50831 19.8471 3.59098 19.8891 3.6809 19.9298C3.77103 19.9705 3.87415 20.002 3.97067 20.0367C4.06762 20.0717 4.1407 20.1049 4.23019 20.1317C4.33694 20.1661 4.44709 20.1901 4.55682 20.217C4.64205 20.2372 4.71961 20.2632 4.8027 20.28C4.92777 20.3063 5.05775 20.3214 5.18452 20.3395C5.25569 20.3491 5.32493 20.364 5.39716 20.3717C5.59873 20.3917 5.80157 20.4013 6.00441 20.4011H7.11002L7.12217 20.4335L7.21315 20.4011H44.2534V28.0504H34.9037C31.6182 28.0504 28.954 30.7142 28.954 34.0004C28.954 37.2863 31.6182 39.9501 34.9037 39.9501H44.2534V49.2997ZM49.3534 36.5506C49.3534 37.4894 48.5923 38.2502 47.6533 38.2502H34.9037C32.5568 38.2502 30.6541 36.3475 30.6541 34.0004C30.6541 31.653 32.5568 29.7507 34.9037 29.7507H47.6533C47.8587 29.7486 48.0624 29.7277 48.264 29.6885C48.3121 29.6802 48.3601 29.6706 48.4076 29.6591C48.5998 29.6175 48.7881 29.5587 48.9701 29.4846L48.9991 29.4707C49.1207 29.4192 49.2388 29.3595 49.3534 29.2941V36.5506Z" fill="#0EBAB9"/>
<path d="M18.3906 22.9509H21.7908V24.6508H18.3906V22.9509Z" fill="#0EBAB9"/>
<path d="M11.5908 22.9509H14.9905V24.6508H11.5908V22.9509Z" fill="#0EBAB9"/>
<path d="M38.79 22.9509H41.7033V24.6508H38.79V22.9509Z" fill="#0EBAB9"/>
<path d="M31.9902 22.9509H35.39V24.6508H31.9902V22.9509Z" fill="#0EBAB9"/>
<path d="M5.00131 22.8318L4.60352 24.4807C5.06246 24.5917 5.53249 24.649 6.00423 24.6508H8.19052V22.9509H6.00423C5.66673 22.95 5.33008 22.9102 5.00131 22.8318Z" fill="#0EBAB9"/>
<path d="M25.1904 22.9509H28.5904V24.6508H25.1904V22.9509Z" fill="#0EBAB9"/>
<path d="M5.00131 44.931L4.60352 46.5798C5.06246 46.691 5.53249 46.7485 6.00423 46.7502H8.19052V45.0501H6.00423C5.66673 45.0491 5.33008 45.0099 5.00131 44.931Z" fill="#0EBAB9"/>
<path d="M38.79 45.05H41.7033V46.7501H38.79V45.05Z" fill="#0EBAB9"/>
<path d="M18.3906 45.05H21.7908V46.7501H18.3906V45.05Z" fill="#0EBAB9"/>
<path d="M31.9902 45.05H35.39V46.7501H31.9902V45.05Z" fill="#0EBAB9"/>
<path d="M11.5908 45.05H14.9905V46.7501H11.5908V45.05Z" fill="#0EBAB9"/>
<path d="M25.1904 45.05H28.5904V46.7501H25.1904V45.05Z" fill="#0EBAB9"/>
<path d="M34.9035 31.4506C33.4953 31.4506 32.3535 32.592 32.3535 34.0004C32.3535 35.4083 33.4953 36.5506 34.9035 36.5506C36.3117 36.5506 37.4533 35.4083 37.4533 34.0004C37.4533 32.592 36.3117 31.4506 34.9035 31.4506ZM34.9035 34.8505C34.4343 34.8505 34.0536 34.4697 34.0536 34.0004C34.0536 33.5308 34.4343 33.1504 34.9035 33.1504C35.3729 33.1504 35.7537 33.5308 35.7537 34.0004C35.7537 34.4697 35.3729 34.8505 34.9035 34.8505Z" fill="#0EBAB9"/>
</svg>
