<svg width="80" height="78" viewBox="0 0 80 78" fill="none" xmlns="http://www.w3.org/2000/svg">
<path d="M34.3631 24.1861C39.8789 24.1861 44.3663 19.6986 44.3663 14.1828C44.3663 12.9131 44.1313 11.6752 43.6675 10.5034C43.4295 9.90172 42.7488 9.60672 42.1467 9.845C41.5448 10.083 41.2502 10.7639 41.4883 11.3658C41.8428 12.2617 42.0225 13.2095 42.0225 14.1827C42.0225 18.4061 38.5866 21.8422 34.3631 21.8422C30.1397 21.8422 26.7036 18.4063 26.7036 14.1827C26.7036 9.95938 30.1395 6.52328 34.3631 6.52328C35.8309 6.52328 37.2566 6.93922 38.4856 7.72609C39.0306 8.07469 39.7553 7.91609 40.1044 7.37109C40.4533 6.82609 40.2944 6.10125 39.7494 5.75234C38.1424 4.72344 36.2797 4.17969 34.3631 4.17969C28.8474 4.17969 24.3599 8.66703 24.3599 14.1828C24.3599 19.6986 28.8474 24.1861 34.3631 24.1861Z" fill="#0EBAB9"/>
<path d="M33.0355 8.71484C32.0388 8.71484 31.228 9.52562 31.228 10.5223V17.8458C31.228 18.8425 32.0388 19.6533 33.0355 19.6533H35.6907C36.6874 19.6533 37.4982 18.8425 37.4982 17.8458V10.5223C37.4982 9.52562 36.6874 8.71484 35.6907 8.71484H33.0355ZM35.1544 17.3097H33.5716V11.0586H35.1544V17.3097Z" fill="#0EBAB9"/>
<path d="M78.0002 38.0737H73.5339C72.9561 38.0737 72.4511 37.6906 72.3059 37.1421C70.8942 31.809 67.7303 27.0007 63.3799 23.5646V17.3201C63.3799 16.1667 62.4449 15.2179 61.2778 15.2179C58.5902 15.2179 56.1225 16.7745 54.9419 19.1528C52.6461 18.4567 50.2631 18.0876 47.8442 18.054C48.1978 16.8242 48.3875 15.5254 48.3875 14.1834C48.3875 6.45043 42.0963 0.15918 34.3633 0.15918C26.6303 0.15918 20.3389 6.45043 20.3389 14.1834C20.3389 15.6943 20.5791 17.1503 21.0233 18.515C8.89579 20.8284 -0.0440554 31.4606 0.000163317 43.8245C0.0161008 48.2768 1.19001 52.6603 3.39532 56.5006C5.53407 60.2253 8.60032 63.3823 12.2624 65.6306C12.6875 65.8915 12.9514 66.3648 12.9514 66.8659V76.0481C12.9514 77.0362 13.7553 77.8403 14.7434 77.8403H22.3116C23.0325 77.8403 23.6803 77.4114 23.9617 76.7473L26.5477 70.6448C26.5691 70.5946 26.5867 70.5431 26.6008 70.4903C26.7708 69.8545 27.3492 69.4104 28.0074 69.4104H38.3999C39.0472 69.4104 39.5717 68.8859 39.5717 68.2385C39.5717 67.5912 39.0472 67.0667 38.3999 67.0667H28.0074C26.3195 67.0667 24.8328 68.1857 24.3606 69.799L21.9464 75.4965H15.2953V66.8661C15.2953 65.5561 14.603 64.3173 13.4888 63.6334C6.53923 59.367 2.37298 51.9589 2.34407 43.8165C2.30313 32.4137 10.6799 22.6309 21.9616 20.7275C22.1858 21.1507 22.4313 21.5614 22.6963 21.9578H20.9389C20.062 21.9578 19.3486 22.6711 19.3486 23.5481V26.6176C19.3486 27.4945 20.0619 28.2079 20.9389 28.2079H21.8649C22.5122 28.2079 23.0367 27.6834 23.0367 27.0361C23.0367 26.3887 22.5122 25.8642 21.8649 25.8642H21.6924V24.3017H24.6619C25.318 24.9311 26.035 25.4975 26.803 25.9911C26.4225 26.1846 26.1617 26.58 26.1617 27.0361C26.1617 27.6834 26.6863 28.2079 27.3336 28.2079H47.5786C48.4553 28.2079 49.1688 27.4946 49.1688 26.6176V23.5481C49.1688 22.6712 48.4555 21.9578 47.5786 21.9578H46.0303C46.3641 21.4586 46.6667 20.9367 46.9353 20.3953H47.48C49.7266 20.3953 51.9408 20.7126 54.0731 21.3395L51.2169 28.8287C50.9863 29.4334 51.2895 30.1106 51.8942 30.3414C52.5039 30.5734 53.1778 30.2642 53.4069 29.664C57.7239 18.3448 56.7039 21.0204 56.8627 20.6032C57.5277 18.8593 59.1848 17.6643 61.0361 17.5681V29.7537C61.0361 30.4011 61.5606 30.9256 62.208 30.9256C62.8553 30.9256 63.3799 30.4011 63.3799 29.7537V26.652C66.5863 29.6442 68.9205 33.5115 70.0403 37.7418C70.4573 39.3173 71.8939 40.4175 73.5339 40.4175H77.6553C77.6294 45.2893 77.0505 50.1611 75.9334 54.9037L75.9031 55.0323H74.58C70.8763 55.0323 67.2877 56.6395 64.7342 59.4421C63.252 61.069 61.5514 62.4773 59.6795 63.6275C58.5428 64.326 57.8641 65.5367 57.8641 66.8661V75.4964H51.213L48.7988 69.7989C48.3267 68.1856 46.84 67.0665 45.1522 67.0665H43.8683C43.2209 67.0665 42.6964 67.591 42.6964 68.2384C42.6964 68.8857 43.2209 69.4103 43.8683 69.4103H45.1522C45.8103 69.4103 46.3886 69.8543 46.5586 70.4901C46.5727 70.5429 46.5903 70.5945 46.6117 70.6446L49.1977 76.7473C49.4791 77.4112 50.1267 77.8401 50.8478 77.8401H58.4159C59.4041 77.8401 60.2081 77.036 60.2081 76.0479V66.8659C60.2081 66.3573 60.4694 65.8931 60.907 65.6242C62.9661 64.3589 64.8367 62.81 66.467 61.0204C68.5773 58.7045 71.5345 57.3761 74.5803 57.3761H76.1758C77.1083 57.3761 77.9086 56.7421 78.1222 55.835L78.2152 55.4411C79.4002 50.4092 80.0008 45.237 80.0003 40.0682C80 38.9685 79.103 38.0737 78.0002 38.0737ZM34.3633 2.50293C40.8039 2.50293 46.0438 7.74277 46.0438 14.1834C46.0438 20.6242 40.8039 25.864 34.3633 25.864C27.9225 25.864 22.6827 20.6242 22.6827 14.1834C22.6827 7.74277 27.9225 2.50293 34.3633 2.50293ZM46.825 25.864H42.1173C42.8125 25.4011 43.4641 24.8778 44.0647 24.3015H46.8248V25.864H46.825Z" fill="#0EBAB9"/>
</svg>
