<svg width="60" height="60" viewBox="0 0 60 60" fill="none" xmlns="http://www.w3.org/2000/svg">
<path d="M35.625 22.5C36.1428 22.5 36.5625 22.0803 36.5625 21.5625C36.5625 21.0447 36.1428 20.625 35.625 20.625C35.1072 20.625 34.6875 21.0447 34.6875 21.5625C34.6875 22.0803 35.1072 22.5 35.625 22.5Z" fill="#0EBAB9"/>
<path d="M24.375 22.5C24.8928 22.5 25.3125 22.0803 25.3125 21.5625C25.3125 21.0447 24.8928 20.625 24.375 20.625C23.8572 20.625 23.4375 21.0447 23.4375 21.5625C23.4375 22.0803 23.8572 22.5 24.375 22.5Z" fill="#0EBAB9"/>
<path d="M33.75 30H31.875C31.875 31.0341 31.0341 31.875 30 31.875C28.9659 31.875 28.125 31.0341 28.125 30H26.25C26.25 32.0681 27.9319 33.75 30 33.75C32.0681 33.75 33.75 32.0681 33.75 30Z" fill="#0EBAB9"/>
<path d="M46.0528 44.3325L36.435 40.3978C35.3737 39.9637 34.6875 38.9419 34.6875 37.7944V37.1213C37.5722 35.1281 39.7753 32.3156 41.0241 29.0625H41.25C43.8347 29.0625 45.9375 26.9597 45.9375 24.375V17.8125C46.9716 17.8125 47.8125 16.9716 47.8125 15.9375V14.0625C47.8125 13.0284 46.9716 12.1875 45.9375 12.1875H45.2222C43.1784 5.53125 37.0294 0.9375 30 0.9375C22.9706 0.9375 16.8216 5.53125 14.7778 12.1875H14.0625C13.0284 12.1875 12.1875 13.0284 12.1875 14.0625V15.9375C12.1875 16.9716 13.0284 17.8125 14.0625 17.8125V24.375C14.0625 26.9597 16.1653 29.0625 18.75 29.0625H18.9759C20.2247 32.3166 22.4278 35.1281 25.3125 37.1213V37.7944C25.3125 38.9419 24.6262 39.9628 23.565 40.3969L13.9472 44.3316C8.32219 46.6341 4.6875 52.0481 4.6875 58.125V59.0625H14.0625H45.9375H55.3125V58.125C55.3125 52.0481 51.6778 46.6341 46.0528 44.3325ZM15.9375 45.5447L19.6875 44.0109V51.5625H15.9375V45.5447ZM21.5625 43.6753L28.7334 51.5625H21.5625V43.6753ZM31.2666 51.5625L38.4375 43.6753V51.5625H31.2666ZM40.3125 44.01L44.0625 45.5438V51.5625H40.3125V44.01ZM41.6381 27.1481C41.9934 25.7588 42.1875 24.3122 42.1875 22.8291V21.735C43.2759 22.1231 44.0625 23.1544 44.0625 24.375C44.0625 25.7925 43.0041 26.9569 41.6381 27.1481ZM44.0625 20.6494C43.515 20.235 42.8841 19.9247 42.1875 19.7831V17.8125H44.0625V20.6494ZM32.5247 3.045L31.4306 7.32562C31.2638 7.98094 30.6759 8.4375 30 8.4375C29.3241 8.4375 28.7362 7.98094 28.5694 7.32656L27.4753 3.04594C28.2975 2.89594 29.1403 2.8125 30 2.8125C30.8597 2.8125 31.7025 2.89594 32.5247 3.045ZM25.6575 3.50625L26.7525 7.79063C27.1312 9.27563 28.4672 10.3125 30 10.3125C31.5328 10.3125 32.8688 9.27563 33.2475 7.79063L34.3425 3.50625C38.4506 4.83844 41.7909 8.01 43.2619 12.1875H39.375V10.3125H37.5V12.1875H35.625V10.3125H33.75V12.1875H26.25V10.3125H24.375V12.1875H22.5V10.3125H20.625V12.1875H16.7381C18.2091 8.01 21.5494 4.83844 25.6575 3.50625ZM14.0625 14.0625H45.9375L45.9384 15.9375H14.0625V14.0625ZM17.8125 17.8125V19.7822C17.1159 19.9247 16.485 20.2341 15.9375 20.6484V17.8125H17.8125ZM15.9375 24.375C15.9375 23.1544 16.7241 22.1231 17.8125 21.735V22.8291C17.8125 24.3122 18.0066 25.7588 18.3619 27.1481C16.9959 26.9569 15.9375 25.7925 15.9375 24.375ZM19.6875 22.8291V17.8125H40.3125V22.8291C40.3125 29.4131 36.1819 35.2481 30 37.4456C23.8181 35.2481 19.6875 29.4141 19.6875 22.8291ZM29.7038 39.3263L30 39.4256L30.2963 39.3272C31.1841 39.0309 32.0353 38.6691 32.8453 38.2472C32.9409 39.2466 33.3422 40.17 33.9862 40.8984C33.1416 42.2672 31.6388 43.125 30 43.125C28.3612 43.125 26.8584 42.2672 26.0128 40.8975C26.6578 40.1691 27.0581 39.2456 27.1538 38.2463C27.9638 38.6681 28.8159 39.0309 29.7038 39.3263ZM24.2756 42.1331C24.3562 42.1003 24.4284 42.0553 24.5062 42.0178C25.7053 43.8553 27.7612 45 30 45C32.2388 45 34.2947 43.8553 35.4938 42.0178C35.5716 42.0553 35.6447 42.1003 35.7253 42.1331L36.8766 42.6047L30 50.1694L23.1234 42.6047L24.2756 42.1331ZM6.59531 57.1875C6.92906 52.4766 9.76969 48.3441 14.0625 46.3359V57.1875H6.59531ZM15.9375 57.1875V53.4375H44.0625V57.1875H15.9375ZM45.9375 57.1875V46.3359C50.2303 48.3441 53.0709 52.4766 53.4047 57.1875H45.9375Z" fill="#0EBAB9"/>
</svg>
