<svg width="70" height="70" viewBox="0 0 70 70" fill="none" xmlns="http://www.w3.org/2000/svg">
<path d="M64.0839 0H5.91613L0.0406452 21.149L0 24.8387C0 27.3294 2.02548 29.3548 4.51613 29.3548C5.8721 29.3548 7.07452 28.7429 7.90323 27.7945C8.73194 28.7429 9.93435 29.3548 11.2903 29.3548C12.6463 29.3548 13.8487 28.7429 14.6774 27.7945C15.5061 28.7429 16.7085 29.3548 18.0645 29.3548C19.4205 29.3548 20.6229 28.7429 21.4516 27.7945C22.2803 28.7429 23.4827 29.3548 24.8387 29.3548C26.1947 29.3548 27.3971 28.7429 28.2258 27.7945C29.0545 28.7429 30.2569 29.3548 31.6129 29.3548C32.9689 29.3548 34.1713 28.7429 35 27.7945C35.8287 28.7429 37.0311 29.3548 38.3871 29.3548C39.7431 29.3548 40.9455 28.7429 41.7742 27.7945C42.6029 28.7429 43.8053 29.3548 45.1613 29.3548C46.5173 29.3548 47.7197 28.7429 48.5484 27.7945C49.3771 28.7429 50.5795 29.3548 51.9355 29.3548C53.2915 29.3548 54.4939 28.7429 55.3226 27.7945C56.1513 28.7429 57.3537 29.3548 58.7097 29.3548C60.0656 29.3548 61.2681 28.7429 62.0968 27.7945C62.9255 28.7429 64.1279 29.3548 65.4839 29.3548C67.9745 29.3548 70 27.3294 70 24.8387V21.4516L64.0839 0ZM6.77419 24.8387C6.77419 26.084 5.76145 27.0968 4.51613 27.0968C3.27081 27.0968 2.25806 26.084 2.25806 24.8387V22.5806H6.77419V24.8387ZM6.99774 20.3226H2.61484L7.63226 2.25806H11.0115L6.99774 20.3226ZM13.5484 24.8387C13.5484 26.084 12.5356 27.0968 11.2903 27.0968C10.045 27.0968 9.03226 26.084 9.03226 24.8387V22.5806H13.5484V24.8387ZM13.7211 20.3226H9.31113L13.326 2.25806H16.7323L13.7211 20.3226ZM20.3226 24.8387C20.3226 26.084 19.3098 27.0968 18.0645 27.0968C16.8192 27.0968 15.8065 26.084 15.8065 24.8387V22.5806H20.3226V24.8387ZM20.4411 20.3226H16.0097L19.0208 2.25806H22.4485L20.4411 20.3226ZM27.0968 24.8387C27.0968 26.084 26.084 27.0968 24.8387 27.0968C23.5934 27.0968 22.5806 26.084 22.5806 24.8387V22.5806H27.0968V24.8387ZM27.1577 20.3226H22.7127L24.7202 2.25806H28.1615L27.1577 20.3226ZM33.871 24.8387C33.871 26.084 32.8582 27.0968 31.6129 27.0968C30.3676 27.0968 29.3548 26.084 29.3548 24.8387V22.5806H33.871V24.8387ZM33.871 20.3226H29.4192L30.4229 2.25806H33.871V20.3226ZM36.129 2.25806H39.5771L40.5808 20.3226H36.129V2.25806ZM40.6452 24.8387C40.6452 26.084 39.6324 27.0968 38.3871 27.0968C37.1418 27.0968 36.129 26.084 36.129 24.8387V22.5806H40.6452V24.8387ZM41.8385 2.25806H45.2798L47.2873 20.3226H42.8423L41.8385 2.25806ZM47.4194 24.8387C47.4194 26.084 46.4066 27.0968 45.1613 27.0968C43.916 27.0968 42.9032 26.084 42.9032 24.8387V22.5806H47.4194V24.8387ZM47.5515 2.25806H50.9792L53.9903 20.3226H49.5589L47.5515 2.25806ZM54.1936 24.8387C54.1936 26.084 53.1808 27.0968 51.9355 27.0968C50.6902 27.0968 49.6774 26.084 49.6774 24.8387V22.5806H54.1936V24.8387ZM53.2677 2.25806H56.674L60.6889 20.3226H56.2789L53.2677 2.25806ZM60.9677 24.8387C60.9677 26.084 59.955 27.0968 58.7097 27.0968C57.4644 27.0968 56.4516 26.084 56.4516 24.8387V22.5806H60.9677V24.8387ZM58.9885 2.25806H62.3677L67.3852 20.3226H63.0023L58.9885 2.25806ZM67.7419 24.8387C67.7419 26.084 66.7292 27.0968 65.4839 27.0968C64.2385 27.0968 63.2258 26.084 63.2258 24.8387V22.5806H67.7419V24.8387Z" fill="#0EBAB9"/>
<path d="M64.3549 67.7423H59.8388V53.9862C61.1496 53.5188 62.0969 52.2768 62.0969 50.8068C62.0969 48.9394 60.5772 47.4197 58.7098 47.4197H49.6775C47.8101 47.4197 46.2904 48.9394 46.2904 50.8068C46.2904 52.2768 47.2377 53.5188 48.5485 53.9862V67.7423H44.0324V53.9862C45.3432 53.5188 46.2904 52.2768 46.2904 50.8068C46.2904 48.9394 44.7708 47.4197 42.9033 47.4197H33.8711C32.0037 47.4197 30.484 48.9394 30.484 50.8068C30.484 52.2768 31.4312 53.5188 32.742 53.9862V67.7423H28.2259V55.323C28.2259 49.7196 23.668 45.1617 18.0646 45.1617C12.4612 45.1617 7.90334 49.7196 7.90334 55.323V67.7423H5.64527V31.6133H3.38721V70.0004H66.613V31.6133H64.3549V67.7423ZM16.9356 67.7423H10.1614V55.323C10.1614 51.3499 13.1127 48.061 16.9356 47.5101V67.7423ZM25.9679 67.7423H19.1937V47.5101C23.0166 48.061 25.9679 51.3499 25.9679 55.323V67.7423ZM41.7743 67.7423H35.0001V58.7101H41.7743V67.7423ZM41.7743 56.452H35.0001V54.1939H41.7743V56.452ZM42.9033 51.9359H33.8711C33.2479 51.9359 32.742 51.4301 32.742 50.8068C32.742 50.1836 33.2479 49.6778 33.8711 49.6778H42.9033C43.5266 49.6778 44.0324 50.1836 44.0324 50.8068C44.0324 51.4301 43.5266 51.9359 42.9033 51.9359ZM57.5808 67.7423H50.8066V58.7101H57.5808V67.7423ZM57.5808 56.452H50.8066V54.1939H57.5808V56.452ZM58.7098 51.9359H49.6775C49.0543 51.9359 48.5485 51.4301 48.5485 50.8068C48.5485 50.1836 49.0543 49.6778 49.6775 49.6778H58.7098C59.333 49.6778 59.8388 50.1836 59.8388 50.8068C59.8388 51.4301 59.333 51.9359 58.7098 51.9359Z" fill="#0EBAB9"/>
<path d="M22.5808 56.4512H20.3228V60.9673H22.5808V56.4512Z" fill="#0EBAB9"/>
<path d="M15.8064 56.4512H13.5483V60.9673H15.8064V56.4512Z" fill="#0EBAB9"/>
<path d="M28.2257 31.6133V38.3875H22.5806V45.1617H62.0967V42.9036H24.8386V40.6455H62.0967V38.3875H57.5806V31.6133H50.8064V38.3875H46.2902V31.6133H39.5161V38.3875H34.9999V31.6133H28.2257ZM53.0644 33.8713H55.3225V38.3875H53.0644V33.8713ZM41.7741 33.8713H44.0322V38.3875H41.7741V33.8713ZM32.7419 38.3875H30.4838V33.8713H32.7419V38.3875Z" fill="#0EBAB9"/>
</svg>
