<svg width="52" height="60" viewBox="0 0 52 60" fill="none" xmlns="http://www.w3.org/2000/svg">
<path d="M42.0528 44.3325L32.435 40.3978C31.3737 39.9637 30.6875 38.9419 30.6875 37.7944V37.1213C33.5722 35.1281 35.7753 32.3156 37.0241 29.0625H37.25C39.8347 29.0625 41.9375 26.9597 41.9375 24.375V16.875C41.9375 8.08688 34.7881 0.9375 26 0.9375H10.0625V1.875C10.0625 2.84438 10.1881 3.78281 10.4028 4.6875H7.08031L7.26219 5.77969C7.71406 8.48906 8.89906 10.9031 10.5856 12.8503C10.2453 14.1591 10.0625 15.5081 10.0625 16.875V24.375C10.0625 26.9597 12.1653 29.0625 14.75 29.0625H14.9759C16.2247 32.3166 18.4278 35.1281 21.3125 37.1213V37.7944C21.3125 38.9419 20.6262 39.9628 19.565 40.3969L9.94719 44.3316C4.32219 46.6341 0.6875 52.0481 0.6875 58.125V59.0625H51.3125V58.125C51.3125 52.0481 47.6778 46.6341 42.0528 44.3325ZM37.0128 48.1894L29.2522 51.0994L31.2631 54.1153L26.6534 57.1875H26.1387L26.8447 55.7184C27.0472 55.2984 31.3719 46.2872 32.8128 42.5784L35.5091 43.6819L37.0128 48.1894ZM14.9872 48.1894L16.49 43.6819L19.1872 42.5784C20.6253 46.2722 24.9528 55.2975 25.1544 55.7184L25.8603 57.1875H25.3466L20.7378 54.1153L22.7487 51.0994L14.9872 48.1894ZM22.2463 45H29.7547C28.5369 47.7487 26.9562 51.1153 26 53.1328C25.0447 51.1144 23.4641 47.7469 22.2463 45ZM37.6381 27.1481C37.9934 25.7588 38.1875 24.3122 38.1875 22.8291V21.735C39.2759 22.1231 40.0625 23.1544 40.0625 24.375C40.0625 25.7925 39.0041 26.9569 37.6381 27.1481ZM11.0028 6.5625C12.8431 10.9622 17.1903 14.0625 22.25 14.0625H28.8125V12.1875H22.25C16.8791 12.1875 12.455 8.06156 11.9797 2.8125H26C33.7541 2.8125 40.0625 9.12094 40.0625 16.875V20.6494C39.4925 20.2181 38.8306 19.9087 38.1012 19.7737C37.6991 17.595 35.7931 15.9375 33.5 15.9375H21.4681C15.695 15.9375 10.7619 12.0572 9.34344 6.5625H11.0028ZM12.1644 14.3981C12.6875 14.8406 13.2303 15.2606 13.8125 15.6244V19.7822C13.1159 19.9247 12.485 20.2341 11.9375 20.6484V16.875C11.9375 16.0397 12.0191 15.2128 12.1644 14.3981ZM11.9375 24.375C11.9375 23.1544 12.7241 22.1231 13.8125 21.735V22.8291C13.8125 24.3122 14.0066 25.7588 14.3619 27.1481C12.9959 26.9569 11.9375 25.7925 11.9375 24.375ZM15.6875 22.8291V16.6134C17.4622 17.3869 19.4188 17.8125 21.4681 17.8125H33.5C35.0506 17.8125 36.3125 19.0744 36.3125 20.625V22.8291C36.3125 29.4131 32.1819 35.2481 26 37.4456C19.8181 35.2481 15.6875 29.4141 15.6875 22.8291ZM23.1538 38.2463C23.9638 38.6681 24.815 39.0309 25.7028 39.3263L26 39.4256L26.2963 39.3272C27.1841 39.0309 28.0353 38.6691 28.8453 38.2472C28.9878 39.7378 29.8175 41.0606 31.0953 41.8209C30.9519 42.1959 30.7737 42.6338 30.5666 43.1259H21.4325C21.2244 42.6338 21.0462 42.195 20.9028 41.8209C22.1816 41.0597 23.0113 39.7369 23.1538 38.2463ZM10.6569 46.0687L14.2016 44.6184L12.6378 49.3106L19.8772 52.0256L18.1381 54.6347L21.9659 57.1875H11.9375V51.5625H10.0625V57.1875H2.59531C2.945 52.2609 6.03125 47.9606 10.6569 46.0687ZM41.9375 57.1875V51.5625H40.0625V57.1875H30.0341L33.8628 54.6347L32.1238 52.0256L39.3631 49.3106L37.7994 44.6184L41.3441 46.0687C45.9697 47.9616 49.0559 52.2609 49.4056 57.1875H41.9375Z" fill="#0EBAB9"/>
</svg>
