<svg width="1920" height="543" viewBox="0 0 1920 543" fill="none" xmlns="http://www.w3.org/2000/svg">
<mask id="mask0" mask-type="alpha" maskUnits="userSpaceOnUse" x="0" y="0" width="1920" height="543">
<rect width="1920" height="543" fill="#F2F5F8"/>
</mask>
<g mask="url(#mask0)">
<path d="M738.918 315.82C737.565 283.282 713.813 256.502 675.478 226.338C643.238 200.238 552.991 126.353 552.991 126.353C578.096 106.36 583.868 99.5822 603.201 84.3252C661.899 37.5517 654.102 -7.1893 648.329 -24.1293C637.135 -55.6457 604.563 -77 567.242 -77H412.183H351.109H149.909C90.5294 -77 40.3191 -43.4511 21.9989 8.40798C2.31615 64.6722 24.7147 126.013 82.0505 172.115C107.496 192.449 153.297 229.051 200.801 267.014C183.834 271.759 166.535 280.569 150.59 295.826C128.192 317.181 116.656 346.324 118.019 378.19C119.713 418.186 141.43 457.161 179.433 487.325L381.646 649L693.117 399.545C724.667 373.785 740.28 345.653 738.918 315.829V315.82ZM412.183 -15.9996H567.242C578.436 -15.9996 588.278 -10.9139 590.653 -4.13605C593.369 2.98204 587.937 18.2299 565.207 36.5401C523.476 69.7579 457.652 122.629 412.192 158.89V-15.9996H412.183ZM120.053 123.98C83.7537 94.8276 68.4807 58.906 79.3439 28.0609C88.8447 0.949608 116.325 -16.3398 149.568 -16.3398H350.769V308.021C283.932 254.81 167.217 161.603 120.053 123.98ZM217.767 438.851C194.016 419.869 180.105 396.482 179.092 374.788C178.411 360.892 183.162 348.348 193.003 339.197C227.949 306.66 263.577 315.81 300.218 345.294C312.766 355.126 337.88 375.119 351.109 385.971V545.604L217.767 438.841V438.851ZM651.717 354.114L411.842 545.613V236.849C420.662 229.731 445.767 212.101 461.712 199.226C488.17 177.872 519.057 176.18 544.834 196.854C583.509 227.699 611.671 253.449 641.535 277.856C662.571 295.146 674.447 309.373 674.779 320.896C675.46 333.44 660.868 346.996 651.708 354.114H651.717Z" fill="white" fill-opacity="0.65"/>
</g>
</svg>
